<?xml version="1.0" standalone="no"?>
<!DOCTYPE svg PUBLIC "-//W3C//DTD SVG 20010904//EN"
 "http://www.w3.org/TR/2001/REC-SVG-20010904/DTD/svg10.dtd">
<svg version="1.0" xmlns="http://www.w3.org/2000/svg"
 width="545.000000pt" height="514.000000pt" viewBox="0 0 545.000000 514.000000"
 preserveAspectRatio="xMidYMid meet">

<g transform="translate(0.000000,514.000000) scale(0.100000,-0.100000)"
fill="#ffffff" stroke="none">
<path d="M1423 4926 c-95 -30 -188 -108 -220 -185 -8 -20 -20 -39 -27 -43 -6
-4 -106 -8 -223 -8 -210 0 -212 0 -224 23 -37 71 -111 108 -175 87 -99 -33
-151 -139 -109 -221 9 -16 34 -43 57 -59 34 -25 51 -30 96 -30 54 0 57 2 106
53 l51 52 202 3 202 3 6 -24 c4 -14 5 -38 3 -53 l-3 -29 -145 -5 -146 -5 -48
-39 c-26 -22 -68 -66 -93 -98 -40 -52 -48 -58 -81 -58 -20 1 -48 7 -62 15 -14
8 -45 14 -70 15 -115 0 -192 -126 -138 -229 32 -62 67 -85 127 -85 87 0 144
61 139 147 l-3 47 53 0 c57 0 78 14 108 72 9 18 39 57 67 86 l51 52 117 0 117
0 4 -47 c3 -27 3 -51 2 -54 -2 -3 -67 -9 -146 -13 -124 -6 -147 -9 -175 -29
-18 -12 -33 -25 -33 -28 0 -8 4 -8 195 -15 98 -4 152 -10 157 -17 14 -22 9
-75 -8 -81 -9 -3 -64 -6 -122 -6 l-107 -1 -70 -60 c-38 -33 -97 -74 -130 -90
-63 -32 -93 -55 -83 -64 3 -3 34 12 68 34 35 23 85 45 118 52 31 7 70 23 85
36 26 21 38 23 143 23 l114 0 0 -29 c0 -51 -9 -61 -54 -61 -45 0 -164 16 -187
25 -8 3 -58 -28 -114 -71 -137 -104 -128 -101 -160 -54 -27 39 -29 40 -86 40
-51 0 -63 -4 -93 -30 -62 -55 -81 -125 -52 -195 21 -49 68 -75 136 -75 68 0
110 24 135 76 22 46 89 119 160 174 l54 42 126 -8 c140 -8 143 -9 128 -71 l-9
-38 -65 3 -66 4 -74 -60 c-41 -33 -120 -107 -176 -165 -83 -85 -109 -106 -140
-112 -52 -9 -88 -38 -112 -88 -36 -75 -22 -149 38 -200 68 -57 186 -22 232 69
14 28 31 48 38 46 32 -11 74 19 202 145 117 115 140 133 145 117 13 -36 74
-111 109 -135 32 -22 47 -49 27 -49 -4 0 -31 -22 -60 -48 l-52 -48 0 -80 0
-79 -43 -23 c-50 -26 -87 -83 -87 -132 0 -43 44 -122 80 -143 86 -51 205 18
217 127 7 57 -9 97 -54 136 -30 26 -35 37 -35 75 0 54 8 68 70 129 48 46 52
48 91 41 l41 -7 0 -96 c0 -54 5 -164 10 -246 l10 -149 -30 -45 c-96 -145 49
-318 200 -240 80 41 119 157 76 223 -11 16 -15 36 -12 49 4 11 11 124 16 250
5 126 10 230 12 231 2 1 24 5 49 7 l46 5 7 -60 c3 -33 6 -164 6 -292 0 -212 2
-233 18 -248 10 -10 26 -17 34 -17 32 0 38 58 38 336 l0 274 60 0 60 0 0 -242
-1 -243 -29 -29 c-35 -34 -54 -95 -45 -143 7 -41 54 -96 95 -113 40 -17 120
-8 153 16 109 80 75 256 -54 283 l-34 7 -3 232 -2 232 43 0 44 0 7 -169 c7
-198 11 -223 37 -239 34 -21 43 18 49 218 l5 185 30 0 30 0 0 -207 c0 -204 0
-207 24 -232 13 -14 33 -28 43 -32 18 -5 19 -33 16 -1022 l-3 -1017 -515 -5
-515 -5 -54 -28 c-93 -50 -148 -110 -201 -222 -48 -102 -60 -159 -64 -310 l-1
-50 130 -6 c165 -8 2982 -11 3012 -3 28 8 30 23 20 168 -7 112 -9 123 -48 196
-69 134 -141 200 -257 239 -59 20 -83 21 -545 21 l-484 0 -6 128 c-4 70 -7
528 -7 1019 l0 891 35 12 c19 6 44 23 55 37 19 24 20 40 20 224 0 188 1 199
19 199 10 0 32 3 48 6 l30 6 6 -134 c7 -135 24 -248 37 -248 12 0 30 161 30
273 l0 107 50 0 50 0 -2 -232 -3 -233 -42 -6 c-73 -9 -113 -63 -113 -152 0
-94 64 -157 160 -157 87 0 150 70 150 166 0 48 -27 106 -57 123 -18 9 -18 43
-7 334 l7 157 58 0 57 0 4 -300 c3 -319 3 -319 51 -316 l22 1 3 308 2 307 59
0 59 0 4 -239 c3 -173 7 -243 17 -254 10 -13 9 -20 -4 -41 -22 -33 -22 -113
-2 -152 36 -69 98 -101 184 -96 27 2 89 55 109 93 26 52 15 140 -25 184 -16
17 -17 29 -10 90 4 39 8 154 8 258 l1 187 40 0 c34 0 46 -7 93 -53 45 -44 56
-62 66 -106 l11 -53 -35 -40 c-44 -48 -55 -76 -55 -138 0 -38 6 -55 26 -80 97
-115 264 -55 264 96 0 65 -30 112 -87 139 l-43 19 0 68 0 68 -70 69 c-72 70
-81 89 -54 112 9 7 34 39 55 71 22 32 42 58 45 58 16 0 81 -55 191 -162 116
-112 154 -136 166 -105 3 6 6 1 6 -12 2 -66 79 -131 155 -131 81 0 129 37 152
117 15 52 15 55 -8 101 -29 59 -77 92 -132 92 -35 0 -44 5 -58 28 -9 15 -82
92 -162 171 l-147 144 -74 -7 -75 -7 0 49 0 48 118 11 c91 8 122 7 142 -2 29
-15 192 -180 208 -212 7 -11 32 -31 58 -43 81 -40 168 -14 206 61 53 102 -18
219 -132 219 -49 0 -102 -26 -120 -59 -6 -12 -17 -21 -24 -21 -24 0 -184 163
-191 195 -21 89 -21 90 -51 96 -16 4 -73 7 -126 8 l-98 1 0 49 0 48 77 7 c150
12 221 7 359 -25 l52 -12 5 -48 c7 -59 28 -93 72 -113 106 -51 225 21 225 136
0 63 -19 98 -69 131 -51 34 -120 37 -169 7 -18 -11 -37 -20 -42 -20 -5 0 -59
47 -120 104 -76 70 -122 106 -143 110 -18 4 -80 4 -139 0 l-108 -7 0 41 c0 76
-11 72 214 72 l201 0 29 -36 c82 -103 218 -78 271 50 18 43 14 93 -12 132 -18
29 -107 74 -145 74 -65 0 -118 -41 -133 -103 -4 -14 -12 -27 -18 -29 -7 -2
-104 -2 -217 0 l-206 3 -24 46 c-35 67 -106 140 -164 171 l-51 27 -1280 2
c-1039 1 -1288 -1 -1322 -11z m2581 -110 c21 -11 60 -41 86 -68 79 -80 79 -78
82 -643 l3 -490 -28 -57 c-30 -61 -74 -105 -140 -140 -41 -22 -53 -23 -442
-29 -220 -4 -769 -5 -1220 -2 -781 5 -823 7 -873 25 -79 29 -132 75 -167 143
l-30 59 -3 503 c-3 477 -2 505 16 546 38 85 109 145 199 166 22 5 566 8 1258
8 1180 -2 1221 -3 1259 -21z m886 -116 c25 -25 25 -41 -1 -74 -25 -32 -73 -36
-89 -7 -17 32 -12 69 12 85 30 21 54 20 78 -4z m-4256 -22 c9 -12 16 -30 16
-39 0 -24 -39 -69 -60 -69 -22 0 -60 45 -60 71 0 27 35 59 64 59 14 0 32 -10
40 -22z m3948 -312 c55 -44 94 -93 84 -103 -3 -3 -25 4 -49 16 -38 18 -61 21
-190 21 l-147 0 0 55 0 55 124 0 124 0 54 -44z m376 -168 c33 -27 -1 -98 -48
-98 -49 0 -68 62 -29 101 20 20 48 19 77 -3z m-4410 0 c17 -17 15 -68 -5 -90
-45 -50 -104 15 -77 86 7 19 64 22 82 4z m3990 -180 c26 -44 9 -52 -133 -56
l-125 -4 0 40 0 41 53 4 c28 2 83 3 120 3 63 -1 70 -3 85 -28z m-3934 -230
c44 -62 -21 -131 -76 -81 -26 23 -22 58 8 82 34 27 49 26 68 -1z m4321 -3 c14
-13 25 -31 25 -40 0 -22 -37 -55 -62 -55 -27 0 -58 27 -58 52 0 20 42 68 60
68 6 0 22 -11 35 -25z m-3761 -107 c13 -49 7 -68 -20 -68 -18 0 -61 -34 -166
-132 -77 -72 -145 -142 -151 -155 -14 -31 -19 -29 -39 15 -9 20 -24 47 -33 59
-16 21 -12 25 130 156 148 136 157 142 236 146 30 1 38 -3 43 -21z m3376 -104
c152 -150 160 -162 133 -201 -11 -15 -23 -36 -26 -46 -6 -15 -15 -9 -55 35
-73 80 -214 214 -239 227 -12 6 -31 11 -42 11 -18 0 -21 6 -21 43 0 24 3 47 7
50 3 4 31 7 61 7 l55 0 127 -126z m-3852 -246 c17 -17 15 -64 -4 -82 -18 -19
-55 -21 -72 -4 -7 7 -12 26 -12 43 0 38 16 55 50 55 14 0 31 -5 38 -12z m4150
-4 c34 -23 30 -69 -8 -89 -39 -20 -57 -19 -70 4 -15 29 -12 62 7 83 20 22 42
23 71 2z m-3168 -278 c0 -202 -2 -237 -14 -233 -8 3 -30 9 -49 12 l-34 7 -6
126 c-9 159 -9 317 -1 325 3 3 28 5 55 4 l49 -2 0 -239z m2265 -222 c0 -1 -23
-5 -51 -9 l-51 -6 -6 98 c-4 54 -7 160 -7 235 l0 137 53 3 52 3 5 -230 c3
-126 5 -231 5 -231z m-985 261 l0 -185 -220 0 -220 0 0 185 0 185 220 0 220 0
0 -185z m-1692 -107 c30 -30 1 -98 -43 -98 -30 0 -45 19 -45 55 0 38 16 55 50
55 14 0 31 -5 38 -12z m3070 -10 c28 -23 -2 -98 -40 -98 -22 0 -48 33 -48 61
0 52 45 71 88 37z m-1488 -1113 l0 -925 -114 0 c-95 0 -115 3 -120 16 -8 21
-8 1188 1 1547 l6 287 114 0 113 0 0 -925z m-1202 849 c26 -18 30 -65 7 -84
-22 -18 -66 -15 -82 6 -16 22 -17 66 -1 82 17 17 49 15 76 -4z m566 -10 c34
-33 12 -94 -34 -94 -32 0 -60 31 -60 67 0 39 64 58 94 27z m1168 -9 c8 -18 8
-31 -1 -54 -15 -35 -47 -46 -78 -26 -52 35 -31 105 32 105 28 0 38 -5 47 -25z
m576 13 c17 -17 15 -58 -5 -80 -20 -22 -61 -23 -85 -1 -23 21 -24 69 0 82 24
14 75 14 90 -1z m-1204 -1878 l112 0 -4 -72 c-5 -120 -10 -137 -45 -158 -39
-24 -111 -26 -166 -4 -43 17 -51 37 -51 123 0 77 11 123 27 117 8 -4 65 -6
127 -6z m-301 -166 c35 -6 37 -8 37 -45 0 -34 5 -43 43 -70 80 -60 121 -72
214 -66 127 9 181 43 212 134 l16 48 480 0 480 0 59 -29 c83 -41 186 -150 163
-172 -9 -9 -2833 -11 -2842 -2 -7 7 25 83 48 110 7 9 42 35 78 57 l64 40 455
0 c250 1 472 -2 493 -5z m1745 -366 l3 -48 -1460 0 c-804 0 -1464 -1 -1468 -2
-10 -4 -16 68 -9 88 5 12 223 14 1468 12 l1463 -3 3 -47z"/>
<path d="M1556 4735 c-56 -20 -107 -65 -136 -121 l-25 -48 0 -436 c1 -465 2
-481 52 -547 13 -18 45 -45 71 -60 l47 -28 290 -6 c160 -4 679 -6 1155 -5 863
2 865 2 906 23 54 28 110 92 123 140 15 51 15 894 0 946 -14 52 -64 106 -124
133 l-50 24 -1135 -1 c-939 0 -1142 -2 -1174 -14z m2334 -110 c53 -48 53 -50
58 -490 4 -440 1 -473 -44 -516 l-26 -24 -1136 0 c-1076 0 -1139 1 -1170 18
-18 10 -42 32 -52 50 -19 30 -20 53 -20 467 0 484 -4 455 70 499 l35 21 1131
-2 c1116 -3 1132 -3 1154 -23z"/>
<path d="M2120 4458 c-110 -56 -123 -191 -27 -275 110 -96 277 -6 265 142 -5
65 -37 111 -92 136 -54 25 -92 24 -146 -3z"/>
<path d="M3180 4457 c-62 -32 -83 -65 -87 -134 -5 -72 24 -127 82 -160 50 -28
87 -29 143 -2 127 62 139 218 23 296 -44 30 -105 30 -161 0z"/>
<path d="M1573 4225 c-3 -9 -3 -51 -1 -95 10 -172 88 -171 88 2 0 42 -3 83 -6
92 -8 21 -72 22 -81 1z"/>
<path d="M3038 3993 c-47 -69 -84 -101 -158 -136 -160 -77 -346 -29 -460 118
-45 58 -62 65 -98 39 -30 -20 -28 -51 6 -105 41 -64 104 -116 189 -157 66 -31
87 -36 173 -40 120 -6 203 16 297 78 63 42 149 137 159 178 9 31 -20 72 -51
72 -17 0 -33 -13 -57 -47z"/>
<path d="M4403 2370 c-47 -21 -59 -36 -15 -19 15 6 36 13 47 15 11 2 34 8 50
13 l30 9 -35 1 c-19 0 -54 -8 -77 -19z"/>
<path d="M4590 2378 c0 -4 18 -8 40 -8 22 0 40 -4 40 -9 0 -6 98 -10 240 -11
169 0 240 3 240 11 0 6 14 10 33 8 80 -5 267 2 267 10 0 6 -166 9 -430 8 -236
0 -430 -5 -430 -9z"/>
<path d="M5398 2353 c6 -2 18 -2 25 0 6 3 1 5 -13 5 -14 0 -19 -2 -12 -5z"/>
<path d="M4389 2317 c-42 -28 -79 -82 -79 -116 -1 -23 -2 -24 -11 -8 -6 11 -8
33 -5 50 5 28 4 29 -6 12 -11 -19 -11 -219 1 -274 1 -2 8 2 16 9 11 10 15 36
15 111 0 54 4 109 10 123 5 14 30 46 54 71 25 25 44 45 42 45 -2 0 -18 -10
-37 -23z m-82 -269 c-3 -7 -5 -2 -5 12 0 14 2 19 5 13 2 -7 2 -19 0 -25z"/>
<path d="M3875 2281 c-70 -43 -105 -97 -75 -116 6 -3 10 5 10 19 0 46 114 118
150 96 7 -4 16 -23 20 -41 l8 -34 1 31 c2 59 -55 82 -114 45z"/>
<path d="M4978 2283 c57 -2 147 -2 200 0 53 1 7 3 -103 3 -110 0 -154 -2 -97
-3z"/>
<path d="M4442 2254 c-12 -8 -29 -28 -37 -44 -17 -32 -21 -126 -5 -100 6 10 7
-42 3 -147 -6 -169 1 -214 36 -232 16 -9 95 -15 189 -13 32 0 50 -4 46 -10 -8
-13 39 -6 48 7 5 6 8 6 8 -1 0 -7 26 -11 68 -12 47 -1 61 1 47 8 -18 8 -18 9
-2 9 10 1 27 -4 37 -9 13 -7 21 -7 25 0 9 14 45 12 45 -2 0 -9 4 -8 11 2 8 11
12 12 16 3 2 -7 12 -13 21 -13 13 0 14 2 4 9 -24 15 96 22 274 15 119 -5 174
-4 174 3 0 8 -93 11 -287 10 -159 0 -374 0 -480 1 -185 2 -193 3 -219 25 l-27
23 -1 198 -1 198 30 24 c17 13 25 24 18 24 -18 0 -5 28 15 33 10 3 7 5 -8 6
-14 0 -36 -6 -48 -15z"/>
<path d="M5405 2250 c-23 -6 -25 -8 -8 -9 12 0 28 -4 37 -7 11 -4 16 -1 16 10
0 17 0 17 -45 6z"/>
<path d="M3897 2197 c4 -24 1 -43 -8 -54 -12 -14 -12 -16 1 -11 18 5 26 76 11
91 -7 7 -8 -1 -4 -26z"/>
<path d="M3967 2193 c-4 -3 -7 -11 -7 -17 0 -6 5 -5 12 2 6 6 9 14 7 17 -3 3
-9 2 -12 -2z"/>
<path d="M4690 2142 c-35 -36 -38 -69 -9 -106 16 -20 29 -26 58 -26 49 0 81
32 81 82 0 41 -22 65 -68 74 -26 5 -36 1 -62 -24z"/>
<path d="M5150 2138 c-27 -30 -26 -73 5 -103 27 -28 42 -30 78 -14 44 20 59
77 31 117 -21 31 -85 31 -114 0z"/>
<path d="M4010 2055 c-24 -13 -24 -14 -4 -15 12 0 27 7 34 15 16 19 3 19 -30
0z"/>
<path d="M4500 2038 c0 -42 14 -88 27 -88 22 0 36 41 24 73 -11 28 -51 39 -51
15z"/>
<path d="M5408 2019 c-10 -5 -18 -21 -18 -34 0 -21 5 -25 30 -25 22 0 30 5 30
18 0 31 -22 53 -42 41z"/>
<path d="M3801 1984 c-12 -15 -21 -37 -21 -49 0 -31 40 -66 68 -59 25 7 20 24
-8 24 -44 0 -43 71 1 85 18 6 28 1 46 -19 13 -15 23 -22 23 -15 0 18 -49 59
-70 59 -10 0 -28 -12 -39 -26z"/>
<path d="M4291 1948 c-1 -21 3 -26 15 -21 9 3 11 9 6 12 -5 3 -12 13 -15 21
-3 9 -6 4 -6 -12z"/>
<path d="M4783 1940 c-11 -16 -9 -24 13 -50 64 -76 184 -97 279 -49 28 14 57
37 65 52 13 24 13 28 -2 43 -16 16 -19 15 -51 -19 -38 -41 -73 -57 -120 -57
-45 1 -108 32 -139 69 -15 17 -28 31 -30 31 -2 0 -9 -9 -15 -20z"/>
<path d="M4280 1899 c0 -5 5 -7 10 -4 6 3 10 8 10 11 0 2 -4 4 -10 4 -5 0 -10
-5 -10 -11z"/>
<path d="M62 1893 c37 -2 100 -2 140 0 40 1 10 3 -67 3 -77 0 -110 -1 -73 -3z"/>
<path d="M4292 1835 c0 -16 2 -22 5 -12 2 9 2 23 0 30 -3 6 -5 -1 -5 -18z"/>
<path d="M4290 1791 c0 -5 5 -13 10 -16 6 -3 10 -2 10 4 0 5 -4 13 -10 16 -5
3 -10 2 -10 -4z"/>
<path d="M3834 1772 c-50 -8 -74 -67 -43 -105 21 -28 71 -37 84 -17 4 7 -2 9
-18 5 -34 -9 -67 10 -67 38 0 32 20 56 55 65 32 9 23 20 -11 14z"/>
<path d="M5050 1710 c-17 -6 1 -8 57 -9 45 -1 85 4 88 9 7 12 -108 12 -145 0z"/>
<path d="M5288 1703 c12 -2 32 -2 45 0 12 2 2 4 -23 4 -25 0 -35 -2 -22 -4z"/>
<path d="M4808 1598 c3 -18 5 -72 6 -121 1 -52 5 -87 11 -87 7 0 10 33 8 89
l-3 89 48 6 c26 3 67 4 92 1 25 -2 60 -4 78 -4 25 -1 32 -5 32 -20 0 -11 5
-23 11 -27 6 -3 9 -17 6 -30 -2 -13 0 -24 4 -24 5 0 9 -19 9 -42 0 -23 3 -38
8 -34 4 5 7 47 7 94 l0 87 45 6 45 6 -40 3 c-22 1 -68 3 -101 5 -34 1 -67 5
-72 9 -6 3 -14 1 -18 -5 -3 -6 -9 -7 -13 -3 -15 22 -55 34 -109 34 l-59 0 5
-32z"/>
<path d="M4758 1583 c6 -2 18 -2 25 0 6 3 1 5 -13 5 -14 0 -19 -2 -12 -5z"/>
<path d="M1103 1553 c26 -2 67 -2 90 0 23 2 2 3 -48 3 -49 0 -68 -1 -42 -3z"/>
<path d="M5411 1454 c0 -49 4 -111 9 -139 5 -32 6 -2 3 85 -6 154 -13 187 -12
54z"/>
<path d="M5082 1435 c0 -16 2 -22 5 -12 2 9 2 23 0 30 -3 6 -5 -1 -5 -18z"/>
<path d="M4522 1410 c0 -19 2 -27 5 -17 2 9 2 25 0 35 -3 9 -5 1 -5 -18z"/>
<path d="M4850 1419 c0 -5 3 -8 8 -7 4 0 15 -2 25 -7 15 -6 16 -10 5 -17 -9
-7 -6 -8 10 -5 19 5 22 2 16 -11 -4 -9 -9 -59 -12 -109 -4 -99 -18 -125 -25
-45 -3 46 -3 45 -5 -12 -2 -48 1 -57 13 -52 12 4 15 -3 15 -34 0 -23 -5 -40
-13 -42 -9 -2 -8 -8 5 -20 17 -17 18 -13 19 90 1 143 7 205 22 214 7 4 27 8
45 8 25 0 34 -5 41 -22 7 -19 16 -161 22 -328 l1 -35 9 35 c5 19 8 108 8 198
-1 148 -2 162 -17 150 -12 -10 -14 -10 -8 0 4 7 2 12 -5 12 -9 0 -9 3 0 14 10
12 8 16 -10 21 -33 11 -169 13 -169 4z"/>
<path d="M4330 1396 c0 -2 7 -7 16 -10 8 -3 12 -2 9 4 -6 10 -25 14 -25 6z"/>
<path d="M4356 1320 c-24 -42 -48 -53 -74 -34 -12 8 -22 22 -22 30 0 8 -5 14
-11 14 -23 0 -2 -36 33 -55 36 -19 37 -19 58 0 21 19 44 64 37 71 -2 2 -11
-10 -21 -26z"/>
<path d="M4877 1300 c-3 -11 -1 -23 4 -26 5 -3 9 6 9 20 0 31 -6 34 -13 6z"/>
<path d="M4700 1240 c0 -5 14 -10 30 -10 17 0 30 5 30 10 0 6 -13 10 -30 10
-16 0 -30 -4 -30 -10z"/>
<path d="M4430 1221 c0 -10 19 -25 25 -20 1 2 -3 10 -11 17 -8 7 -14 8 -14 3z"/>
<path d="M4628 1223 c6 -2 18 -2 25 0 6 3 1 5 -13 5 -14 0 -19 -2 -12 -5z"/>
<path d="M5320 1209 c0 -5 11 -9 25 -9 14 0 25 4 25 9 0 5 -11 9 -25 9 -14 0
-25 -4 -25 -9z"/>
<path d="M1260 1169 c-7 -11 -10 -23 -7 -25 2 -2 9 7 15 21 14 30 7 33 -8 4z"/>
<path d="M620 962 c0 -17 4 -34 10 -37 6 -4 7 6 3 27 -8 44 -13 48 -13 10z"/>
<path d="M742 258 c-19 -19 -14 -57 13 -83 21 -22 33 -25 103 -25 87 0 112 14
112 63 0 47 -22 57 -124 57 -58 0 -96 -4 -104 -12z"/>
<path d="M368 253 c-20 -5 -33 -42 -24 -71 9 -28 51 -46 106 -45 66 1 100 23
100 66 0 18 -5 38 -12 45 -12 12 -132 15 -170 5z"/>
<path d="M4480 234 c-14 -36 -13 -49 8 -67 15 -13 39 -17 115 -17 91 0 96 1
116 26 26 33 27 60 2 74 -11 5 -67 10 -126 10 -104 0 -106 0 -115 -26z"/>
<path d="M4887 253 c-12 -12 -7 -58 9 -81 13 -19 24 -22 80 -22 78 0 114 19
114 59 0 15 -5 32 -12 39 -13 13 -179 17 -191 5z"/>
<path d="M5402 160 c-63 -39 -80 -150 -24 -158 20 -3 21 -1 12 23 -19 51 -12
82 25 112 54 43 46 59 -13 23z"/>
<path d="M5426 115 c-3 -9 0 -15 9 -15 8 0 15 7 15 15 0 8 -4 15 -9 15 -5 0
-11 -7 -15 -15z"/>
<path d="M5412 78 c-18 -18 -15 -42 7 -62 18 -17 19 -16 26 14 8 38 -12 69
-33 48z"/>
<path d="M1156 15 c-4 -12 6 -15 62 -15 61 1 65 2 48 15 -27 20 -102 20 -110
0z"/>
<path d="M3694 15 c-17 -13 -14 -14 44 -15 62 0 82 12 40 24 -37 10 -63 7 -84
-9z"/>
</g>
</svg>
