<?xml version="1.0" encoding="UTF-8"?>
<svg xmlns="http://www.w3.org/2000/svg" xmlns:xlink="http://www.w3.org/1999/xlink" width="16px" height="16px" viewBox="0 0 16 16" version="1.1">
<g id="surface1">
<path style=" stroke:none;fill-rule:nonzero;fill:rgb(100%,100%,100%);fill-opacity:1;" d="M 4.144531 1.074219 C 3.867188 1.160156 3.597656 1.390625 3.503906 1.613281 C 3.480469 1.671875 3.445312 1.726562 3.425781 1.738281 C 3.40625 1.75 3.117188 1.761719 2.777344 1.761719 C 2.164062 1.761719 2.15625 1.761719 2.125 1.695312 C 2.015625 1.488281 1.800781 1.378906 1.613281 1.441406 C 1.324219 1.539062 1.171875 1.847656 1.296875 2.085938 C 1.324219 2.132812 1.394531 2.210938 1.460938 2.257812 C 1.5625 2.328125 1.609375 2.34375 1.742188 2.34375 C 1.898438 2.34375 1.90625 2.339844 2.050781 2.191406 L 2.199219 2.039062 L 2.789062 2.03125 L 3.375 2.019531 L 3.394531 2.089844 C 3.40625 2.132812 3.40625 2.203125 3.402344 2.246094 L 3.394531 2.328125 L 2.972656 2.34375 L 2.546875 2.359375 L 2.40625 2.472656 C 2.328125 2.535156 2.207031 2.664062 2.136719 2.757812 C 2.019531 2.910156 1.996094 2.925781 1.898438 2.925781 C 1.839844 2.925781 1.757812 2.90625 1.71875 2.882812 C 1.675781 2.859375 1.585938 2.84375 1.515625 2.839844 C 1.179688 2.839844 0.957031 3.207031 1.113281 3.507812 C 1.207031 3.6875 1.308594 3.753906 1.484375 3.753906 C 1.734375 3.753906 1.902344 3.578125 1.886719 3.324219 L 1.878906 3.1875 L 2.03125 3.1875 C 2.199219 3.1875 2.261719 3.148438 2.347656 2.980469 C 2.375 2.925781 2.460938 2.8125 2.542969 2.730469 L 2.691406 2.578125 L 3.371094 2.578125 L 3.382812 2.714844 C 3.394531 2.792969 3.394531 2.863281 3.390625 2.871094 C 3.382812 2.878906 3.195312 2.898438 2.964844 2.910156 C 2.605469 2.925781 2.535156 2.9375 2.457031 2.992188 C 2.402344 3.027344 2.359375 3.066406 2.359375 3.074219 C 2.359375 3.097656 2.371094 3.097656 2.925781 3.121094 C 3.210938 3.132812 3.371094 3.148438 3.382812 3.167969 C 3.425781 3.234375 3.410156 3.386719 3.359375 3.40625 C 3.335938 3.414062 3.175781 3.421875 3.003906 3.421875 L 2.695312 3.425781 L 2.488281 3.601562 C 2.378906 3.695312 2.207031 3.816406 2.113281 3.863281 C 1.929688 3.957031 1.839844 4.023438 1.871094 4.046875 C 1.878906 4.058594 1.96875 4.011719 2.066406 3.949219 C 2.167969 3.882812 2.316406 3.816406 2.410156 3.796875 C 2.5 3.777344 2.617188 3.730469 2.660156 3.691406 C 2.734375 3.632812 2.769531 3.625 3.074219 3.625 L 3.40625 3.625 L 3.40625 3.710938 C 3.40625 3.859375 3.382812 3.886719 3.25 3.886719 C 3.121094 3.886719 2.773438 3.839844 2.707031 3.816406 C 2.683594 3.804688 2.535156 3.898438 2.375 4.023438 C 1.976562 4.324219 2 4.316406 1.90625 4.179688 C 1.828125 4.066406 1.824219 4.0625 1.65625 4.0625 C 1.507812 4.0625 1.472656 4.074219 1.386719 4.148438 C 1.207031 4.308594 1.152344 4.515625 1.234375 4.71875 C 1.296875 4.859375 1.433594 4.9375 1.632812 4.9375 C 1.828125 4.9375 1.953125 4.867188 2.023438 4.714844 C 2.089844 4.582031 2.285156 4.367188 2.488281 4.207031 L 2.648438 4.085938 L 3.015625 4.109375 C 3.421875 4.132812 3.429688 4.136719 3.386719 4.316406 L 3.359375 4.425781 L 3.171875 4.417969 L 2.980469 4.40625 L 2.765625 4.582031 C 2.644531 4.675781 2.414062 4.894531 2.25 5.0625 C 2.007812 5.308594 1.933594 5.371094 1.84375 5.386719 C 1.691406 5.414062 1.585938 5.5 1.515625 5.644531 C 1.414062 5.863281 1.453125 6.078125 1.628906 6.226562 C 1.824219 6.394531 2.167969 6.289062 2.304688 6.027344 C 2.34375 5.945312 2.394531 5.886719 2.414062 5.890625 C 2.507812 5.925781 2.628906 5.835938 3.003906 5.46875 C 3.34375 5.132812 3.410156 5.082031 3.425781 5.128906 C 3.464844 5.234375 3.640625 5.453125 3.742188 5.523438 C 3.835938 5.585938 3.878906 5.664062 3.820312 5.664062 C 3.808594 5.664062 3.730469 5.730469 3.644531 5.804688 L 3.496094 5.945312 L 3.496094 6.40625 L 3.371094 6.472656 C 3.222656 6.550781 3.117188 6.714844 3.117188 6.859375 C 3.117188 6.984375 3.246094 7.214844 3.347656 7.273438 C 3.601562 7.425781 3.945312 7.222656 3.980469 6.90625 C 4 6.738281 3.957031 6.621094 3.824219 6.507812 C 3.738281 6.433594 3.722656 6.402344 3.722656 6.289062 C 3.722656 6.132812 3.746094 6.09375 3.925781 5.914062 C 4.066406 5.78125 4.078125 5.777344 4.191406 5.796875 L 4.308594 5.816406 L 4.308594 6.097656 C 4.308594 6.253906 4.324219 6.574219 4.339844 6.8125 L 4.367188 7.246094 L 4.28125 7.378906 C 4 7.800781 4.425781 8.304688 4.863281 8.078125 C 5.097656 7.957031 5.210938 7.617188 5.085938 7.425781 C 5.054688 7.378906 5.042969 7.320312 5.050781 7.285156 C 5.0625 7.253906 5.082031 6.921875 5.097656 6.554688 C 5.113281 6.1875 5.125 5.886719 5.132812 5.882812 C 5.136719 5.878906 5.203125 5.867188 5.273438 5.863281 L 5.410156 5.847656 L 5.429688 6.023438 C 5.4375 6.117188 5.445312 6.5 5.445312 6.875 C 5.445312 7.492188 5.453125 7.550781 5.5 7.597656 C 5.527344 7.625 5.574219 7.644531 5.597656 7.644531 C 5.691406 7.644531 5.707031 7.476562 5.707031 6.667969 L 5.707031 5.867188 L 6.058594 5.867188 L 6.058594 6.574219 L 6.054688 7.28125 L 5.96875 7.367188 C 5.867188 7.464844 5.8125 7.640625 5.839844 7.78125 C 5.859375 7.902344 5.996094 8.0625 6.117188 8.109375 C 6.234375 8.160156 6.464844 8.132812 6.5625 8.066406 C 6.878906 7.832031 6.78125 7.320312 6.40625 7.242188 L 6.304688 7.21875 L 6.289062 5.867188 L 6.542969 5.867188 L 6.566406 6.359375 C 6.585938 6.9375 6.597656 7.011719 6.671875 7.058594 C 6.773438 7.117188 6.796875 7.003906 6.816406 6.421875 L 6.828125 5.882812 L 7.003906 5.882812 L 7.003906 6.484375 C 7.003906 7.082031 7.003906 7.089844 7.074219 7.160156 C 7.113281 7.203125 7.171875 7.242188 7.199219 7.253906 C 7.253906 7.269531 7.253906 7.351562 7.246094 10.230469 L 7.238281 13.195312 L 5.738281 13.207031 L 4.238281 13.222656 L 4.082031 13.304688 C 3.808594 13.449219 3.648438 13.625 3.496094 13.949219 C 3.355469 14.246094 3.320312 14.414062 3.308594 14.855469 L 3.304688 15 L 3.683594 15.015625 C 4.164062 15.039062 12.371094 15.046875 12.457031 15.027344 C 12.539062 15.003906 12.542969 14.957031 12.515625 14.535156 C 12.496094 14.210938 12.488281 14.179688 12.375 13.964844 C 12.175781 13.574219 11.964844 13.382812 11.625 13.269531 C 11.453125 13.210938 11.386719 13.207031 10.039062 13.207031 L 8.628906 13.207031 L 8.613281 12.835938 C 8.601562 12.632812 8.59375 11.296875 8.59375 9.867188 L 8.59375 7.273438 L 8.695312 7.238281 C 8.75 7.21875 8.820312 7.171875 8.855469 7.128906 C 8.910156 7.058594 8.914062 7.011719 8.914062 6.476562 C 8.914062 5.929688 8.914062 5.898438 8.96875 5.898438 C 8.996094 5.898438 9.0625 5.890625 9.105469 5.878906 L 9.195312 5.863281 L 9.210938 6.253906 C 9.234375 6.644531 9.28125 6.976562 9.320312 6.976562 C 9.355469 6.976562 9.40625 6.507812 9.40625 6.179688 L 9.40625 5.867188 L 9.699219 5.867188 L 9.691406 6.542969 L 9.683594 7.222656 L 9.5625 7.242188 C 9.347656 7.265625 9.234375 7.425781 9.234375 7.683594 C 9.234375 7.957031 9.417969 8.140625 9.699219 8.140625 C 9.953125 8.140625 10.136719 7.9375 10.136719 7.65625 C 10.136719 7.515625 10.058594 7.347656 9.96875 7.296875 C 9.917969 7.273438 9.917969 7.171875 9.949219 6.324219 L 9.96875 5.867188 L 10.304688 5.867188 L 10.316406 6.742188 C 10.324219 7.671875 10.324219 7.671875 10.464844 7.664062 L 10.527344 7.660156 L 10.539062 6.761719 L 10.542969 5.867188 L 10.886719 5.867188 L 10.898438 6.566406 C 10.90625 7.070312 10.917969 7.273438 10.949219 7.304688 C 10.976562 7.34375 10.972656 7.363281 10.9375 7.425781 C 10.871094 7.519531 10.871094 7.753906 10.929688 7.867188 C 11.035156 8.066406 11.214844 8.160156 11.464844 8.144531 C 11.546875 8.140625 11.726562 7.984375 11.785156 7.875 C 11.859375 7.722656 11.828125 7.46875 11.710938 7.339844 C 11.664062 7.289062 11.660156 7.253906 11.683594 7.078125 C 11.695312 6.964844 11.707031 6.628906 11.707031 6.324219 L 11.707031 5.78125 L 11.824219 5.78125 C 11.921875 5.78125 11.957031 5.800781 12.09375 5.9375 C 12.226562 6.0625 12.257812 6.117188 12.289062 6.246094 L 12.320312 6.398438 L 12.21875 6.515625 C 12.089844 6.65625 12.058594 6.738281 12.058594 6.917969 C 12.058594 7.027344 12.074219 7.078125 12.132812 7.148438 C 12.414062 7.484375 12.902344 7.308594 12.902344 6.871094 C 12.902344 6.679688 12.816406 6.542969 12.648438 6.464844 L 12.523438 6.410156 L 12.523438 6.015625 L 12.320312 5.8125 C 12.109375 5.609375 12.082031 5.554688 12.164062 5.488281 C 12.1875 5.464844 12.261719 5.375 12.324219 5.28125 C 12.386719 5.1875 12.445312 5.113281 12.453125 5.113281 C 12.5 5.113281 12.691406 5.273438 13.011719 5.582031 C 13.347656 5.910156 13.457031 5.980469 13.492188 5.890625 C 13.503906 5.871094 13.511719 5.886719 13.511719 5.925781 C 13.515625 6.117188 13.742188 6.304688 13.960938 6.304688 C 14.199219 6.304688 14.339844 6.199219 14.40625 5.964844 C 14.449219 5.8125 14.449219 5.804688 14.382812 5.671875 C 14.296875 5.5 14.15625 5.402344 13.996094 5.402344 C 13.894531 5.402344 13.871094 5.386719 13.828125 5.320312 C 13.800781 5.277344 13.589844 5.054688 13.355469 4.824219 L 12.929688 4.402344 L 12.714844 4.425781 L 12.496094 4.445312 L 12.496094 4.160156 L 12.839844 4.128906 C 13.101562 4.105469 13.195312 4.109375 13.25 4.136719 C 13.335938 4.179688 13.8125 4.660156 13.859375 4.753906 C 13.878906 4.785156 13.949219 4.84375 14.027344 4.878906 C 14.261719 4.996094 14.515625 4.917969 14.625 4.699219 C 14.78125 4.402344 14.574219 4.0625 14.242188 4.0625 C 14.097656 4.0625 13.945312 4.136719 13.890625 4.234375 C 13.875 4.269531 13.84375 4.296875 13.824219 4.296875 C 13.753906 4.296875 13.285156 3.820312 13.265625 3.726562 C 13.207031 3.46875 13.207031 3.464844 13.117188 3.449219 C 13.070312 3.4375 12.90625 3.429688 12.75 3.425781 L 12.464844 3.421875 L 12.464844 3.140625 L 12.691406 3.121094 C 13.125 3.085938 13.332031 3.097656 13.734375 3.191406 L 13.886719 3.226562 L 13.902344 3.367188 C 13.921875 3.539062 13.984375 3.636719 14.109375 3.695312 C 14.417969 3.84375 14.765625 3.636719 14.765625 3.300781 C 14.765625 3.117188 14.710938 3.015625 14.566406 2.917969 C 14.417969 2.820312 14.214844 2.808594 14.074219 2.898438 C 14.019531 2.929688 13.964844 2.957031 13.949219 2.957031 C 13.9375 2.957031 13.777344 2.820312 13.601562 2.652344 C 13.378906 2.449219 13.246094 2.34375 13.183594 2.332031 C 13.132812 2.320312 12.953125 2.320312 12.78125 2.332031 L 12.464844 2.351562 L 12.464844 2.234375 C 12.464844 2.011719 12.433594 2.023438 13.089844 2.023438 L 13.675781 2.023438 L 13.757812 2.128906 C 13.996094 2.429688 14.394531 2.355469 14.546875 1.984375 C 14.601562 1.859375 14.589844 1.710938 14.511719 1.597656 C 14.460938 1.515625 14.203125 1.382812 14.089844 1.382812 C 13.902344 1.382812 13.746094 1.503906 13.703125 1.683594 C 13.691406 1.722656 13.667969 1.761719 13.652344 1.769531 C 13.628906 1.773438 13.347656 1.773438 13.019531 1.769531 L 12.417969 1.757812 L 12.347656 1.625 C 12.246094 1.429688 12.039062 1.21875 11.871094 1.128906 L 11.722656 1.046875 L 7.996094 1.042969 C 4.96875 1.039062 4.242188 1.046875 4.144531 1.074219 Z M 11.660156 1.394531 C 11.722656 1.425781 11.835938 1.515625 11.910156 1.59375 C 12.140625 1.824219 12.140625 1.820312 12.152344 3.464844 L 12.160156 4.894531 L 12.078125 5.058594 C 11.992188 5.238281 11.863281 5.363281 11.671875 5.464844 C 11.550781 5.53125 11.515625 5.535156 10.382812 5.550781 C 9.742188 5.5625 8.144531 5.566406 6.828125 5.558594 C 4.554688 5.542969 4.433594 5.535156 4.289062 5.484375 C 4.058594 5.398438 3.902344 5.265625 3.800781 5.066406 L 3.714844 4.894531 L 3.703125 3.429688 C 3.695312 2.042969 3.699219 1.960938 3.75 1.839844 C 3.863281 1.59375 4.070312 1.417969 4.332031 1.355469 C 4.394531 1.34375 5.980469 1.332031 7.996094 1.332031 C 11.429688 1.339844 11.550781 1.34375 11.660156 1.394531 Z M 14.242188 1.734375 C 14.316406 1.804688 14.316406 1.851562 14.238281 1.949219 C 14.167969 2.042969 14.027344 2.054688 13.980469 1.96875 C 13.929688 1.875 13.945312 1.769531 14.015625 1.722656 C 14.101562 1.660156 14.171875 1.664062 14.242188 1.734375 Z M 1.847656 1.796875 C 1.871094 1.832031 1.894531 1.882812 1.894531 1.910156 C 1.894531 1.980469 1.78125 2.113281 1.71875 2.113281 C 1.652344 2.113281 1.542969 1.980469 1.542969 1.90625 C 1.542969 1.824219 1.644531 1.734375 1.730469 1.734375 C 1.769531 1.734375 1.824219 1.761719 1.847656 1.796875 Z M 13.34375 2.707031 C 13.503906 2.832031 13.617188 2.976562 13.589844 3.003906 C 13.582031 3.015625 13.515625 2.992188 13.445312 2.960938 C 13.335938 2.90625 13.269531 2.898438 12.894531 2.898438 L 12.464844 2.898438 L 12.464844 2.578125 L 13.1875 2.578125 Z M 14.441406 3.195312 C 14.535156 3.273438 14.4375 3.480469 14.300781 3.480469 C 14.15625 3.480469 14.101562 3.300781 14.214844 3.1875 C 14.273438 3.128906 14.355469 3.132812 14.441406 3.195312 Z M 1.597656 3.195312 C 1.644531 3.246094 1.640625 3.394531 1.582031 3.457031 C 1.449219 3.601562 1.277344 3.414062 1.355469 3.207031 C 1.378906 3.152344 1.542969 3.140625 1.597656 3.195312 Z M 13.21875 3.71875 C 13.292969 3.847656 13.242188 3.871094 12.828125 3.882812 L 12.464844 3.894531 L 12.464844 3.65625 L 12.621094 3.644531 C 12.703125 3.640625 12.863281 3.636719 12.96875 3.636719 C 13.152344 3.640625 13.171875 3.644531 13.21875 3.71875 Z M 1.757812 4.390625 C 1.886719 4.570312 1.699219 4.769531 1.539062 4.625 C 1.460938 4.558594 1.472656 4.457031 1.5625 4.386719 C 1.660156 4.308594 1.703125 4.308594 1.757812 4.390625 Z M 14.34375 4.398438 C 14.382812 4.4375 14.417969 4.488281 14.417969 4.515625 C 14.417969 4.578125 14.308594 4.675781 14.234375 4.675781 C 14.15625 4.675781 14.066406 4.597656 14.066406 4.523438 C 14.066406 4.464844 14.191406 4.324219 14.242188 4.324219 C 14.257812 4.324219 14.304688 4.355469 14.34375 4.398438 Z M 3.390625 4.710938 C 3.429688 4.851562 3.410156 4.90625 3.332031 4.90625 C 3.28125 4.90625 3.152344 5.007812 2.847656 5.292969 C 2.625 5.5 2.425781 5.707031 2.410156 5.742188 C 2.367188 5.832031 2.351562 5.828125 2.296875 5.699219 C 2.269531 5.640625 2.226562 5.5625 2.199219 5.527344 C 2.152344 5.464844 2.164062 5.453125 2.578125 5.074219 C 3.007812 4.675781 3.035156 4.660156 3.265625 4.648438 C 3.351562 4.644531 3.375 4.65625 3.390625 4.710938 Z M 13.222656 5.011719 C 13.664062 5.449219 13.6875 5.484375 13.609375 5.597656 C 13.578125 5.640625 13.542969 5.703125 13.535156 5.730469 C 13.515625 5.777344 13.492188 5.757812 13.375 5.628906 C 13.160156 5.398438 12.75 5.007812 12.679688 4.96875 C 12.644531 4.953125 12.585938 4.9375 12.554688 4.9375 C 12.503906 4.9375 12.496094 4.917969 12.496094 4.8125 C 12.496094 4.742188 12.503906 4.675781 12.515625 4.664062 C 12.523438 4.652344 12.605469 4.644531 12.691406 4.644531 L 12.851562 4.644531 Z M 2.003906 5.730469 C 2.054688 5.777344 2.046875 5.914062 1.992188 5.96875 C 1.941406 6.023438 1.832031 6.027344 1.78125 5.980469 C 1.761719 5.957031 1.746094 5.902344 1.746094 5.855469 C 1.746094 5.742188 1.792969 5.695312 1.894531 5.695312 C 1.933594 5.695312 1.984375 5.707031 2.003906 5.730469 Z M 14.089844 5.742188 C 14.191406 5.808594 14.179688 5.941406 14.066406 6 C 13.953125 6.058594 13.902344 6.054688 13.863281 5.988281 C 13.820312 5.902344 13.828125 5.808594 13.882812 5.746094 C 13.941406 5.683594 14.007812 5.679688 14.089844 5.742188 Z M 4.863281 6.550781 C 4.863281 7.136719 4.859375 7.242188 4.824219 7.230469 C 4.800781 7.21875 4.734375 7.203125 4.679688 7.195312 L 4.582031 7.171875 L 4.5625 6.804688 C 4.539062 6.34375 4.539062 5.882812 4.5625 5.859375 C 4.570312 5.851562 4.640625 5.84375 4.722656 5.847656 L 4.863281 5.855469 Z M 11.460938 7.195312 C 11.460938 7.199219 11.394531 7.210938 11.3125 7.222656 L 11.164062 7.242188 L 11.144531 6.953125 C 11.132812 6.796875 11.125 6.488281 11.125 6.269531 L 11.125 5.871094 L 11.28125 5.863281 L 11.429688 5.855469 L 11.445312 6.523438 C 11.453125 6.890625 11.460938 7.195312 11.460938 7.195312 Z M 8.59375 6.4375 L 8.59375 6.976562 L 7.308594 6.976562 L 7.308594 5.898438 L 8.59375 5.898438 Z M 3.664062 6.75 C 3.75 6.835938 3.667969 7.035156 3.539062 7.035156 C 3.453125 7.035156 3.40625 6.976562 3.40625 6.875 C 3.40625 6.761719 3.453125 6.714844 3.554688 6.714844 C 3.59375 6.714844 3.644531 6.726562 3.664062 6.75 Z M 12.605469 6.777344 C 12.6875 6.84375 12.597656 7.0625 12.488281 7.0625 C 12.425781 7.0625 12.347656 6.964844 12.347656 6.886719 C 12.347656 6.734375 12.480469 6.679688 12.605469 6.777344 Z M 8.269531 10.019531 L 8.269531 12.714844 L 7.9375 12.714844 C 7.664062 12.714844 7.605469 12.703125 7.589844 12.667969 C 7.566406 12.605469 7.566406 9.207031 7.59375 8.160156 L 7.609375 7.324219 L 8.269531 7.324219 Z M 4.769531 7.546875 C 4.847656 7.597656 4.859375 7.734375 4.792969 7.789062 C 4.726562 7.84375 4.597656 7.835938 4.550781 7.773438 C 4.503906 7.710938 4.503906 7.582031 4.550781 7.535156 C 4.597656 7.484375 4.691406 7.492188 4.769531 7.546875 Z M 6.417969 7.574219 C 6.519531 7.671875 6.453125 7.847656 6.320312 7.847656 C 6.226562 7.847656 6.144531 7.757812 6.144531 7.652344 C 6.144531 7.539062 6.332031 7.484375 6.417969 7.574219 Z M 9.820312 7.601562 C 9.84375 7.652344 9.84375 7.691406 9.816406 7.757812 C 9.773438 7.859375 9.679688 7.894531 9.589844 7.835938 C 9.4375 7.734375 9.5 7.527344 9.683594 7.527344 C 9.765625 7.527344 9.792969 7.542969 9.820312 7.601562 Z M 11.5 7.5625 C 11.546875 7.613281 11.542969 7.734375 11.484375 7.796875 C 11.425781 7.859375 11.304688 7.863281 11.238281 7.800781 C 11.167969 7.738281 11.167969 7.597656 11.238281 7.5625 C 11.304688 7.519531 11.453125 7.519531 11.5 7.5625 Z M 7.992188 13.035156 L 8.316406 13.035156 L 8.304688 13.242188 C 8.292969 13.59375 8.277344 13.640625 8.175781 13.703125 C 8.0625 13.773438 7.851562 13.777344 7.691406 13.714844 C 7.566406 13.664062 7.542969 13.605469 7.542969 13.355469 C 7.542969 13.132812 7.574219 13 7.621094 13.015625 C 7.644531 13.027344 7.8125 13.035156 7.992188 13.035156 Z M 7.113281 13.515625 C 7.21875 13.535156 7.222656 13.539062 7.222656 13.648438 C 7.222656 13.746094 7.238281 13.773438 7.347656 13.851562 C 7.582031 14.027344 7.699219 14.0625 7.972656 14.042969 C 8.339844 14.019531 8.5 13.917969 8.589844 13.652344 L 8.636719 13.515625 L 11.429688 13.515625 L 11.601562 13.597656 C 11.84375 13.71875 12.144531 14.035156 12.078125 14.097656 C 12.050781 14.125 3.828125 14.132812 3.800781 14.105469 C 3.78125 14.085938 3.875 13.863281 3.941406 13.785156 C 3.960938 13.757812 4.0625 13.683594 4.167969 13.617188 L 4.355469 13.503906 L 5.679688 13.503906 C 6.40625 13.5 7.054688 13.507812 7.113281 13.515625 Z M 12.199219 14.582031 L 12.207031 14.722656 L 7.953125 14.722656 C 5.613281 14.722656 3.691406 14.726562 3.679688 14.726562 C 3.648438 14.738281 3.632812 14.53125 3.652344 14.472656 C 3.667969 14.4375 4.300781 14.429688 7.929688 14.4375 L 12.1875 14.445312 Z M 12.199219 14.582031 "/>
<path style=" stroke:none;fill-rule:nonzero;fill:rgb(100%,100%,100%);fill-opacity:1;" d="M 4.53125 1.632812 C 4.367188 1.6875 4.21875 1.820312 4.136719 1.984375 L 4.0625 2.125 L 4.0625 3.394531 C 4.066406 4.746094 4.070312 4.792969 4.214844 4.984375 C 4.253906 5.039062 4.34375 5.117188 4.421875 5.160156 L 4.558594 5.242188 L 5.402344 5.261719 C 5.867188 5.273438 7.378906 5.277344 8.765625 5.273438 C 11.28125 5.269531 11.285156 5.269531 11.40625 5.207031 C 11.5625 5.125 11.726562 4.941406 11.761719 4.800781 C 11.808594 4.652344 11.808594 2.195312 11.761719 2.042969 C 11.722656 1.894531 11.578125 1.734375 11.402344 1.65625 L 11.257812 1.585938 L 7.949219 1.589844 C 5.214844 1.589844 4.625 1.597656 4.53125 1.632812 Z M 11.328125 1.953125 C 11.484375 2.089844 11.484375 2.097656 11.5 3.378906 C 11.511719 4.660156 11.5 4.757812 11.371094 4.882812 L 11.292969 4.953125 L 7.984375 4.953125 C 4.851562 4.953125 4.667969 4.949219 4.578125 4.898438 C 4.527344 4.871094 4.457031 4.804688 4.425781 4.753906 C 4.371094 4.664062 4.367188 4.597656 4.367188 3.394531 C 4.367188 1.984375 4.355469 2.066406 4.574219 1.941406 L 4.675781 1.878906 L 7.96875 1.882812 C 11.21875 1.894531 11.265625 1.894531 11.328125 1.953125 Z M 11.328125 1.953125 "/>
<path style=" stroke:none;fill-rule:nonzero;fill:rgb(100%,100%,100%);fill-opacity:1;" d="M 6.175781 2.4375 C 5.855469 2.601562 5.816406 2.992188 6.097656 3.238281 C 6.417969 3.519531 6.902344 3.257812 6.867188 2.824219 C 6.851562 2.636719 6.761719 2.5 6.601562 2.429688 C 6.441406 2.355469 6.332031 2.359375 6.175781 2.4375 Z M 6.175781 2.4375 "/>
<path style=" stroke:none;fill-rule:nonzero;fill:rgb(100%,100%,100%);fill-opacity:1;" d="M 9.261719 2.441406 C 9.082031 2.535156 9.019531 2.628906 9.007812 2.832031 C 8.992188 3.039062 9.078125 3.199219 9.246094 3.296875 C 9.394531 3.378906 9.5 3.382812 9.664062 3.304688 C 10.035156 3.121094 10.070312 2.667969 9.730469 2.441406 C 9.601562 2.351562 9.425781 2.351562 9.261719 2.441406 Z M 9.261719 2.441406 "/>
<path style=" stroke:none;fill-rule:nonzero;fill:rgb(100%,100%,100%);fill-opacity:1;" d="M 4.582031 3.117188 C 4.574219 3.140625 4.574219 3.265625 4.578125 3.394531 C 4.609375 3.894531 4.835938 3.890625 4.835938 3.386719 C 4.835938 3.265625 4.824219 3.144531 4.816406 3.121094 C 4.792969 3.058594 4.609375 3.054688 4.582031 3.117188 Z M 4.582031 3.117188 "/>
<path style=" stroke:none;fill-rule:nonzero;fill:rgb(100%,100%,100%);fill-opacity:1;" d="M 8.847656 3.792969 C 8.710938 3.992188 8.601562 4.085938 8.386719 4.1875 C 7.921875 4.414062 7.378906 4.273438 7.046875 3.84375 C 6.917969 3.675781 6.867188 3.65625 6.761719 3.730469 C 6.675781 3.789062 6.679688 3.878906 6.78125 4.035156 C 6.898438 4.222656 7.082031 4.375 7.332031 4.492188 C 7.523438 4.585938 7.585938 4.597656 7.835938 4.609375 C 8.183594 4.628906 8.425781 4.5625 8.699219 4.382812 C 8.882812 4.261719 9.132812 3.984375 9.164062 3.863281 C 9.1875 3.773438 9.105469 3.65625 9.015625 3.65625 C 8.964844 3.65625 8.917969 3.691406 8.847656 3.792969 Z M 8.847656 3.792969 "/>
<path style=" stroke:none;fill-rule:nonzero;fill:rgb(100%,100%,100%);fill-opacity:1;" d="M 12.824219 8.519531 C 12.6875 8.582031 12.652344 8.625 12.78125 8.574219 C 12.824219 8.558594 12.886719 8.535156 12.917969 8.53125 C 12.949219 8.523438 13.015625 8.507812 13.0625 8.492188 L 13.148438 8.464844 L 13.046875 8.464844 C 12.992188 8.464844 12.890625 8.488281 12.824219 8.519531 Z M 12.824219 8.519531 "/>
<path style=" stroke:none;fill-rule:nonzero;fill:rgb(100%,100%,100%);fill-opacity:1;" d="M 13.367188 8.496094 C 13.367188 8.507812 13.421875 8.519531 13.484375 8.519531 C 13.550781 8.519531 13.601562 8.53125 13.601562 8.546875 C 13.601562 8.5625 13.886719 8.574219 14.300781 8.578125 C 14.792969 8.578125 15 8.570312 15 8.546875 C 15 8.527344 15.039062 8.515625 15.09375 8.523438 C 15.328125 8.535156 15.871094 8.515625 15.871094 8.492188 C 15.871094 8.476562 15.390625 8.464844 14.621094 8.46875 C 13.933594 8.46875 13.367188 8.484375 13.367188 8.496094 Z M 13.367188 8.496094 "/>
<path style=" stroke:none;fill-rule:nonzero;fill:rgb(100%,100%,100%);fill-opacity:1;" d="M 15.722656 8.570312 C 15.738281 8.574219 15.773438 8.574219 15.792969 8.570312 C 15.8125 8.558594 15.796875 8.554688 15.757812 8.554688 C 15.714844 8.554688 15.703125 8.558594 15.722656 8.570312 Z M 15.722656 8.570312 "/>
<path style=" stroke:none;fill-rule:nonzero;fill:rgb(100%,100%,100%);fill-opacity:1;" d="M 12.78125 8.671875 C 12.660156 8.753906 12.554688 8.914062 12.554688 9.011719 C 12.550781 9.078125 12.546875 9.082031 12.519531 9.035156 C 12.503906 9.003906 12.496094 8.9375 12.507812 8.890625 C 12.519531 8.808594 12.519531 8.804688 12.488281 8.855469 C 12.457031 8.910156 12.457031 9.492188 12.492188 9.652344 C 12.496094 9.65625 12.515625 9.644531 12.539062 9.625 C 12.570312 9.597656 12.582031 9.519531 12.582031 9.300781 C 12.582031 9.144531 12.59375 8.984375 12.609375 8.945312 C 12.625 8.902344 12.699219 8.808594 12.769531 8.738281 C 12.839844 8.664062 12.894531 8.605469 12.890625 8.605469 C 12.886719 8.605469 12.839844 8.636719 12.78125 8.671875 Z M 12.542969 9.457031 C 12.535156 9.476562 12.53125 9.460938 12.53125 9.421875 C 12.53125 9.382812 12.535156 9.367188 12.542969 9.382812 C 12.550781 9.40625 12.550781 9.4375 12.542969 9.457031 Z M 12.542969 9.457031 "/>
<path style=" stroke:none;fill-rule:nonzero;fill:rgb(100%,100%,100%);fill-opacity:1;" d="M 11.285156 8.777344 C 11.082031 8.902344 10.980469 9.0625 11.066406 9.117188 C 11.085938 9.125 11.097656 9.101562 11.097656 9.0625 C 11.097656 8.925781 11.429688 8.71875 11.535156 8.78125 C 11.554688 8.792969 11.578125 8.847656 11.589844 8.902344 L 11.613281 9 L 11.617188 8.910156 C 11.625 8.738281 11.457031 8.671875 11.285156 8.777344 Z M 11.285156 8.777344 "/>
<path style=" stroke:none;fill-rule:nonzero;fill:rgb(100%,100%,100%);fill-opacity:1;" d="M 14.5 8.773438 C 14.664062 8.777344 14.925781 8.777344 15.082031 8.773438 C 15.234375 8.769531 15.101562 8.761719 14.78125 8.761719 C 14.460938 8.761719 14.332031 8.769531 14.5 8.773438 Z M 14.5 8.773438 "/>
<path style=" stroke:none;fill-rule:nonzero;fill:rgb(100%,100%,100%);fill-opacity:1;" d="M 12.9375 8.855469 C 12.902344 8.878906 12.851562 8.9375 12.828125 8.984375 C 12.78125 9.078125 12.769531 9.351562 12.816406 9.277344 C 12.832031 9.246094 12.835938 9.398438 12.824219 9.703125 C 12.804688 10.195312 12.828125 10.328125 12.929688 10.378906 C 12.976562 10.40625 13.207031 10.421875 13.480469 10.417969 C 13.570312 10.417969 13.625 10.429688 13.613281 10.445312 C 13.589844 10.484375 13.726562 10.464844 13.753906 10.425781 C 13.765625 10.410156 13.777344 10.410156 13.777344 10.429688 C 13.777344 10.449219 13.851562 10.460938 13.972656 10.464844 C 14.109375 10.46875 14.152344 10.460938 14.109375 10.441406 C 14.058594 10.417969 14.058594 10.414062 14.105469 10.414062 C 14.132812 10.414062 14.183594 10.425781 14.214844 10.441406 C 14.25 10.460938 14.273438 10.460938 14.285156 10.441406 C 14.3125 10.402344 14.417969 10.40625 14.417969 10.445312 C 14.417969 10.472656 14.429688 10.46875 14.449219 10.441406 C 14.472656 10.410156 14.484375 10.40625 14.496094 10.433594 C 14.5 10.453125 14.53125 10.46875 14.554688 10.46875 C 14.59375 10.46875 14.597656 10.464844 14.566406 10.445312 C 14.5 10.402344 14.847656 10.378906 15.367188 10.402344 C 15.710938 10.414062 15.871094 10.414062 15.871094 10.390625 C 15.871094 10.367188 15.601562 10.359375 15.039062 10.363281 C 14.574219 10.363281 13.949219 10.363281 13.640625 10.359375 C 13.101562 10.355469 13.078125 10.351562 13 10.285156 L 12.921875 10.21875 L 12.917969 9.644531 L 12.917969 9.066406 L 13.003906 8.996094 C 13.054688 8.957031 13.078125 8.925781 13.058594 8.925781 C 13.003906 8.925781 13.042969 8.84375 13.101562 8.832031 C 13.128906 8.820312 13.121094 8.816406 13.078125 8.8125 C 13.035156 8.8125 12.972656 8.832031 12.9375 8.855469 Z M 12.9375 8.855469 "/>
<path style=" stroke:none;fill-rule:nonzero;fill:rgb(100%,100%,100%);fill-opacity:1;" d="M 15.742188 8.867188 C 15.675781 8.886719 15.667969 8.890625 15.71875 8.894531 C 15.753906 8.894531 15.800781 8.90625 15.828125 8.914062 C 15.859375 8.925781 15.871094 8.917969 15.871094 8.886719 C 15.871094 8.835938 15.871094 8.835938 15.742188 8.867188 Z M 15.742188 8.867188 "/>
<path style=" stroke:none;fill-rule:nonzero;fill:rgb(100%,100%,100%);fill-opacity:1;" d="M 11.351562 9.023438 C 11.363281 9.09375 11.351562 9.148438 11.328125 9.179688 C 11.292969 9.222656 11.292969 9.226562 11.328125 9.210938 C 11.382812 9.199219 11.40625 8.992188 11.363281 8.945312 C 11.339844 8.925781 11.339844 8.949219 11.351562 9.023438 Z M 11.351562 9.023438 "/>
<path style=" stroke:none;fill-rule:nonzero;fill:rgb(100%,100%,100%);fill-opacity:1;" d="M 11.554688 9.035156 C 11.542969 9.042969 11.535156 9.066406 11.535156 9.085938 C 11.535156 9.101562 11.546875 9.097656 11.570312 9.078125 C 11.585938 9.0625 11.59375 9.039062 11.589844 9.027344 C 11.578125 9.019531 11.5625 9.023438 11.554688 9.035156 Z M 11.554688 9.035156 "/>
<path style=" stroke:none;fill-rule:nonzero;fill:rgb(100%,100%,100%);fill-opacity:1;" d="M 13.660156 9.183594 C 13.558594 9.289062 13.550781 9.382812 13.632812 9.492188 C 13.679688 9.550781 13.71875 9.566406 13.800781 9.566406 C 13.945312 9.566406 14.039062 9.472656 14.039062 9.328125 C 14.039062 9.210938 13.972656 9.140625 13.839844 9.113281 C 13.765625 9.097656 13.734375 9.109375 13.660156 9.183594 Z M 13.660156 9.183594 "/>
<path style=" stroke:none;fill-rule:nonzero;fill:rgb(100%,100%,100%);fill-opacity:1;" d="M 15 9.195312 C 14.921875 9.28125 14.921875 9.40625 15.015625 9.496094 C 15.09375 9.578125 15.136719 9.582031 15.242188 9.535156 C 15.371094 9.476562 15.414062 9.3125 15.332031 9.195312 C 15.269531 9.105469 15.082031 9.105469 15 9.195312 Z M 15 9.195312 "/>
<path style=" stroke:none;fill-rule:nonzero;fill:rgb(100%,100%,100%);fill-opacity:1;" d="M 11.679688 9.4375 C 11.609375 9.472656 11.609375 9.476562 11.667969 9.480469 C 11.703125 9.480469 11.746094 9.460938 11.765625 9.4375 C 11.8125 9.382812 11.773438 9.382812 11.679688 9.4375 Z M 11.679688 9.4375 "/>
<path style=" stroke:none;fill-rule:nonzero;fill:rgb(100%,100%,100%);fill-opacity:1;" d="M 13.105469 9.484375 C 13.105469 9.609375 13.148438 9.742188 13.183594 9.742188 C 13.25 9.742188 13.289062 9.621094 13.253906 9.53125 C 13.222656 9.449219 13.105469 9.417969 13.105469 9.484375 Z M 13.105469 9.484375 "/>
<path style=" stroke:none;fill-rule:nonzero;fill:rgb(100%,100%,100%);fill-opacity:1;" d="M 15.75 9.542969 C 15.722656 9.554688 15.699219 9.601562 15.699219 9.640625 C 15.699219 9.703125 15.710938 9.714844 15.785156 9.714844 C 15.851562 9.714844 15.871094 9.699219 15.871094 9.660156 C 15.871094 9.570312 15.808594 9.507812 15.75 9.542969 Z M 15.75 9.542969 "/>
<path style=" stroke:none;fill-rule:nonzero;fill:rgb(100%,100%,100%);fill-opacity:1;" d="M 11.070312 9.644531 C 11.035156 9.6875 11.007812 9.75 11.007812 9.785156 C 11.007812 9.875 11.125 9.976562 11.207031 9.957031 C 11.28125 9.9375 11.265625 9.886719 11.183594 9.886719 C 11.054688 9.886719 11.058594 9.679688 11.1875 9.640625 C 11.238281 9.621094 11.269531 9.636719 11.320312 9.695312 C 11.359375 9.738281 11.386719 9.757812 11.386719 9.738281 C 11.386719 9.6875 11.246094 9.566406 11.183594 9.566406 C 11.15625 9.566406 11.101562 9.601562 11.070312 9.644531 Z M 11.070312 9.644531 "/>
<path style=" stroke:none;fill-rule:nonzero;fill:rgb(100%,100%,100%);fill-opacity:1;" d="M 12.496094 9.75 C 12.496094 9.808594 12.507812 9.824219 12.542969 9.808594 C 12.566406 9.800781 12.574219 9.78125 12.558594 9.773438 C 12.542969 9.765625 12.523438 9.738281 12.515625 9.714844 C 12.507812 9.6875 12.496094 9.703125 12.496094 9.75 Z M 12.496094 9.75 "/>
<path style=" stroke:none;fill-rule:nonzero;fill:rgb(100%,100%,100%);fill-opacity:1;" d="M 13.929688 9.769531 C 13.898438 9.816406 13.902344 9.839844 13.96875 9.917969 C 14.15625 10.136719 14.503906 10.199219 14.78125 10.058594 C 14.863281 10.019531 14.945312 9.953125 14.96875 9.910156 C 15.007812 9.839844 15.007812 9.828125 14.964844 9.78125 C 14.917969 9.738281 14.910156 9.738281 14.816406 9.839844 C 14.707031 9.957031 14.601562 10.003906 14.464844 10.003906 C 14.335938 10 14.152344 9.910156 14.0625 9.804688 C 14.019531 9.753906 13.980469 9.714844 13.972656 9.714844 C 13.96875 9.714844 13.949219 9.738281 13.929688 9.769531 Z M 13.929688 9.769531 "/>
<path style=" stroke:none;fill-rule:nonzero;fill:rgb(100%,100%,100%);fill-opacity:1;" d="M 12.464844 9.890625 C 12.464844 9.90625 12.480469 9.910156 12.496094 9.902344 C 12.511719 9.894531 12.523438 9.878906 12.523438 9.871094 C 12.523438 9.863281 12.511719 9.859375 12.496094 9.859375 C 12.480469 9.859375 12.464844 9.875 12.464844 9.890625 Z M 12.464844 9.890625 "/>
<path style=" stroke:none;fill-rule:nonzero;fill:rgb(100%,100%,100%);fill-opacity:1;" d="M 0.179688 9.910156 C 0.289062 9.914062 0.472656 9.914062 0.589844 9.910156 C 0.703125 9.90625 0.617188 9.898438 0.394531 9.898438 C 0.167969 9.898438 0.0742188 9.902344 0.179688 9.910156 Z M 0.179688 9.910156 "/>
<path style=" stroke:none;fill-rule:nonzero;fill:rgb(100%,100%,100%);fill-opacity:1;" d="M 12.5 10.078125 C 12.5 10.125 12.507812 10.140625 12.515625 10.113281 C 12.519531 10.085938 12.519531 10.046875 12.515625 10.023438 C 12.507812 10.007812 12.5 10.027344 12.5 10.078125 Z M 12.5 10.078125 "/>
<path style=" stroke:none;fill-rule:nonzero;fill:rgb(100%,100%,100%);fill-opacity:1;" d="M 12.496094 10.207031 C 12.496094 10.21875 12.507812 10.242188 12.523438 10.25 C 12.542969 10.261719 12.554688 10.257812 12.554688 10.242188 C 12.554688 10.226562 12.542969 10.203125 12.523438 10.195312 C 12.507812 10.183594 12.496094 10.1875 12.496094 10.207031 Z M 12.496094 10.207031 "/>
<path style=" stroke:none;fill-rule:nonzero;fill:rgb(100%,100%,100%);fill-opacity:1;" d="M 11.167969 10.261719 C 11.019531 10.285156 10.949219 10.457031 11.042969 10.566406 C 11.101562 10.648438 11.246094 10.675781 11.285156 10.617188 C 11.296875 10.59375 11.28125 10.589844 11.234375 10.601562 C 11.132812 10.628906 11.039062 10.574219 11.039062 10.492188 C 11.039062 10.398438 11.097656 10.328125 11.199219 10.300781 C 11.292969 10.273438 11.265625 10.242188 11.167969 10.261719 Z M 11.167969 10.261719 "/>
<path style=" stroke:none;fill-rule:nonzero;fill:rgb(100%,100%,100%);fill-opacity:1;" d="M 14.707031 10.441406 C 14.660156 10.457031 14.710938 10.464844 14.875 10.46875 C 15.003906 10.46875 15.121094 10.457031 15.128906 10.441406 C 15.152344 10.40625 14.816406 10.40625 14.707031 10.441406 Z M 14.707031 10.441406 "/>
<path style=" stroke:none;fill-rule:nonzero;fill:rgb(100%,100%,100%);fill-opacity:1;" d="M 15.402344 10.460938 C 15.4375 10.46875 15.496094 10.46875 15.53125 10.460938 C 15.566406 10.457031 15.539062 10.449219 15.464844 10.449219 C 15.390625 10.449219 15.363281 10.457031 15.402344 10.460938 Z M 15.402344 10.460938 "/>
<path style=" stroke:none;fill-rule:nonzero;fill:rgb(100%,100%,100%);fill-opacity:1;" d="M 14.003906 10.765625 C 14.011719 10.820312 14.019531 10.976562 14.019531 11.121094 C 14.023438 11.269531 14.035156 11.375 14.050781 11.375 C 14.074219 11.375 14.082031 11.277344 14.074219 11.113281 L 14.066406 10.855469 L 14.207031 10.835938 C 14.28125 10.828125 14.402344 10.824219 14.476562 10.835938 C 14.546875 10.839844 14.648438 10.847656 14.703125 10.847656 C 14.773438 10.847656 14.796875 10.859375 14.796875 10.90625 C 14.796875 10.9375 14.808594 10.972656 14.828125 10.984375 C 14.84375 10.992188 14.855469 11.03125 14.84375 11.070312 C 14.839844 11.109375 14.84375 11.140625 14.855469 11.140625 C 14.871094 11.140625 14.882812 11.195312 14.882812 11.261719 C 14.882812 11.328125 14.890625 11.375 14.90625 11.363281 C 14.917969 11.347656 14.925781 11.226562 14.925781 11.085938 L 14.925781 10.835938 L 15.058594 10.816406 L 15.1875 10.800781 L 15.070312 10.789062 C 15.007812 10.789062 14.875 10.78125 14.777344 10.777344 C 14.679688 10.773438 14.582031 10.761719 14.566406 10.75 C 14.550781 10.742188 14.527344 10.746094 14.515625 10.765625 C 14.507812 10.78125 14.488281 10.785156 14.476562 10.773438 C 14.433594 10.710938 14.316406 10.675781 14.160156 10.675781 L 13.988281 10.675781 Z M 14.003906 10.765625 "/>
<path style=" stroke:none;fill-rule:nonzero;fill:rgb(100%,100%,100%);fill-opacity:1;" d="M 13.859375 10.8125 C 13.875 10.816406 13.910156 10.816406 13.929688 10.8125 C 13.949219 10.800781 13.933594 10.796875 13.890625 10.796875 C 13.851562 10.796875 13.835938 10.800781 13.859375 10.8125 Z M 13.859375 10.8125 "/>
<path style=" stroke:none;fill-rule:nonzero;fill:rgb(100%,100%,100%);fill-opacity:1;" d="M 3.210938 10.898438 C 3.289062 10.90625 3.40625 10.90625 3.472656 10.898438 C 3.542969 10.894531 3.480469 10.890625 3.335938 10.890625 C 3.191406 10.890625 3.136719 10.894531 3.210938 10.898438 Z M 3.210938 10.898438 "/>
<path style=" stroke:none;fill-rule:nonzero;fill:rgb(100%,100%,100%);fill-opacity:1;" d="M 15.757812 11.1875 C 15.757812 11.328125 15.769531 11.511719 15.785156 11.589844 C 15.800781 11.683594 15.804688 11.597656 15.792969 11.34375 C 15.777344 10.894531 15.757812 10.800781 15.757812 11.1875 Z M 15.757812 11.1875 "/>
<path style=" stroke:none;fill-rule:nonzero;fill:rgb(100%,100%,100%);fill-opacity:1;" d="M 14.800781 11.242188 C 14.800781 11.289062 14.808594 11.304688 14.816406 11.277344 C 14.820312 11.25 14.820312 11.210938 14.816406 11.191406 C 14.808594 11.171875 14.800781 11.191406 14.800781 11.242188 Z M 14.800781 11.242188 "/>
<path style=" stroke:none;fill-rule:nonzero;fill:rgb(100%,100%,100%);fill-opacity:1;" d="M 13.171875 11.316406 C 13.171875 11.371094 13.175781 11.394531 13.183594 11.363281 C 13.191406 11.339844 13.191406 11.292969 13.183594 11.261719 C 13.175781 11.238281 13.171875 11.257812 13.171875 11.316406 Z M 13.171875 11.316406 "/>
<path style=" stroke:none;fill-rule:nonzero;fill:rgb(100%,100%,100%);fill-opacity:1;" d="M 14.125 11.289062 C 14.125 11.304688 14.132812 11.3125 14.148438 11.308594 C 14.160156 11.308594 14.191406 11.316406 14.222656 11.328125 C 14.265625 11.347656 14.269531 11.359375 14.234375 11.378906 C 14.210938 11.398438 14.21875 11.402344 14.265625 11.394531 C 14.320312 11.378906 14.328125 11.386719 14.3125 11.425781 C 14.300781 11.453125 14.285156 11.597656 14.277344 11.742188 C 14.265625 12.03125 14.222656 12.105469 14.203125 11.875 C 14.195312 11.738281 14.195312 11.742188 14.191406 11.910156 C 14.183594 12.050781 14.191406 12.074219 14.226562 12.0625 C 14.261719 12.050781 14.269531 12.070312 14.269531 12.160156 C 14.269531 12.226562 14.257812 12.277344 14.234375 12.28125 C 14.207031 12.289062 14.210938 12.304688 14.246094 12.339844 C 14.296875 12.390625 14.300781 12.378906 14.304688 12.078125 C 14.304688 11.660156 14.324219 11.480469 14.367188 11.453125 C 14.386719 11.441406 14.445312 11.429688 14.5 11.429688 C 14.570312 11.429688 14.597656 11.445312 14.617188 11.496094 C 14.636719 11.550781 14.664062 11.964844 14.683594 12.449219 L 14.683594 12.554688 L 14.710938 12.449219 C 14.726562 12.394531 14.734375 12.136719 14.734375 11.875 C 14.730469 11.441406 14.726562 11.402344 14.683594 11.4375 C 14.648438 11.464844 14.644531 11.464844 14.660156 11.4375 C 14.671875 11.417969 14.667969 11.402344 14.648438 11.402344 C 14.621094 11.402344 14.621094 11.394531 14.648438 11.363281 C 14.675781 11.328125 14.671875 11.316406 14.617188 11.300781 C 14.523438 11.269531 14.125 11.261719 14.125 11.289062 Z M 14.125 11.289062 "/>
<path style=" stroke:none;fill-rule:nonzero;fill:rgb(100%,100%,100%);fill-opacity:1;" d="M 12.609375 11.355469 C 12.609375 11.363281 12.632812 11.375 12.65625 11.386719 C 12.679688 11.394531 12.691406 11.390625 12.683594 11.375 C 12.667969 11.34375 12.609375 11.332031 12.609375 11.355469 Z M 12.609375 11.355469 "/>
<path style=" stroke:none;fill-rule:nonzero;fill:rgb(100%,100%,100%);fill-opacity:1;" d="M 12.6875 11.578125 C 12.617188 11.699219 12.546875 11.730469 12.472656 11.675781 C 12.4375 11.652344 12.40625 11.613281 12.40625 11.589844 C 12.40625 11.566406 12.394531 11.546875 12.375 11.546875 C 12.308594 11.546875 12.371094 11.652344 12.472656 11.707031 C 12.574219 11.761719 12.578125 11.761719 12.640625 11.707031 C 12.703125 11.652344 12.769531 11.523438 12.746094 11.5 C 12.742188 11.496094 12.714844 11.53125 12.6875 11.578125 Z M 12.6875 11.578125 "/>
<path style=" stroke:none;fill-rule:nonzero;fill:rgb(100%,100%,100%);fill-opacity:1;" d="M 14.203125 11.636719 C 14.195312 11.667969 14.203125 11.703125 14.214844 11.710938 C 14.230469 11.71875 14.242188 11.695312 14.242188 11.652344 C 14.242188 11.5625 14.222656 11.554688 14.203125 11.636719 Z M 14.203125 11.636719 "/>
<path style=" stroke:none;fill-rule:nonzero;fill:rgb(100%,100%,100%);fill-opacity:1;" d="M 13.6875 11.808594 C 13.6875 11.824219 13.730469 11.839844 13.777344 11.839844 C 13.824219 11.839844 13.863281 11.824219 13.863281 11.808594 C 13.863281 11.792969 13.824219 11.78125 13.777344 11.78125 C 13.730469 11.78125 13.6875 11.792969 13.6875 11.808594 Z M 13.6875 11.808594 "/>
<path style=" stroke:none;fill-rule:nonzero;fill:rgb(100%,100%,100%);fill-opacity:1;" d="M 12.902344 11.867188 C 12.902344 11.894531 12.957031 11.9375 12.976562 11.921875 C 12.976562 11.917969 12.964844 11.894531 12.941406 11.875 C 12.917969 11.855469 12.902344 11.851562 12.902344 11.867188 Z M 12.902344 11.867188 "/>
<path style=" stroke:none;fill-rule:nonzero;fill:rgb(100%,100%,100%);fill-opacity:1;" d="M 13.480469 11.859375 C 13.496094 11.867188 13.53125 11.867188 13.550781 11.859375 C 13.570312 11.851562 13.554688 11.84375 13.515625 11.84375 C 13.472656 11.84375 13.457031 11.851562 13.480469 11.859375 Z M 13.480469 11.859375 "/>
<path style=" stroke:none;fill-rule:nonzero;fill:rgb(100%,100%,100%);fill-opacity:1;" d="M 15.496094 11.902344 C 15.496094 11.914062 15.527344 11.925781 15.566406 11.925781 C 15.609375 11.925781 15.640625 11.914062 15.640625 11.902344 C 15.640625 11.886719 15.609375 11.875 15.566406 11.875 C 15.527344 11.875 15.496094 11.886719 15.496094 11.902344 Z M 15.496094 11.902344 "/>
<path style=" stroke:none;fill-rule:nonzero;fill:rgb(100%,100%,100%);fill-opacity:1;" d="M 3.667969 12.015625 C 3.648438 12.050781 3.640625 12.082031 3.648438 12.089844 C 3.65625 12.09375 3.675781 12.070312 3.691406 12.027344 C 3.734375 11.941406 3.714844 11.933594 3.667969 12.015625 Z M 3.667969 12.015625 "/>
<path style=" stroke:none;fill-rule:nonzero;fill:rgb(100%,100%,100%);fill-opacity:1;" d="M 1.804688 12.621094 C 1.804688 12.667969 1.816406 12.71875 1.835938 12.726562 C 1.851562 12.738281 1.855469 12.710938 1.84375 12.648438 C 1.820312 12.519531 1.804688 12.507812 1.804688 12.621094 Z M 1.804688 12.621094 "/>
<path style=" stroke:none;fill-rule:nonzero;fill:rgb(100%,100%,100%);fill-opacity:1;" d="M 2.160156 14.671875 C 2.105469 14.726562 2.121094 14.835938 2.199219 14.910156 C 2.261719 14.976562 2.296875 14.984375 2.5 14.984375 C 2.753906 14.984375 2.824219 14.945312 2.824219 14.800781 C 2.824219 14.664062 2.761719 14.636719 2.464844 14.636719 C 2.296875 14.636719 2.183594 14.648438 2.160156 14.671875 Z M 2.160156 14.671875 "/>
<path style=" stroke:none;fill-rule:nonzero;fill:rgb(100%,100%,100%);fill-opacity:1;" d="M 1.070312 14.683594 C 1.011719 14.699219 0.976562 14.808594 1 14.890625 C 1.027344 14.972656 1.152344 15.027344 1.3125 15.023438 C 1.503906 15.019531 1.601562 14.957031 1.601562 14.832031 C 1.601562 14.777344 1.585938 14.71875 1.566406 14.699219 C 1.53125 14.664062 1.183594 14.65625 1.070312 14.683594 Z M 1.070312 14.683594 "/>
<path style=" stroke:none;fill-rule:nonzero;fill:rgb(100%,100%,100%);fill-opacity:1;" d="M 13.046875 14.738281 C 13.007812 14.84375 13.011719 14.882812 13.070312 14.933594 C 13.113281 14.972656 13.183594 14.984375 13.40625 14.984375 C 13.671875 14.984375 13.6875 14.980469 13.742188 14.910156 C 13.820312 14.8125 13.824219 14.734375 13.75 14.695312 C 13.71875 14.679688 13.554688 14.664062 13.382812 14.664062 C 13.078125 14.664062 13.074219 14.664062 13.046875 14.738281 Z M 13.046875 14.738281 "/>
<path style=" stroke:none;fill-rule:nonzero;fill:rgb(100%,100%,100%);fill-opacity:1;" d="M 14.234375 14.683594 C 14.199219 14.71875 14.214844 14.855469 14.257812 14.921875 C 14.296875 14.976562 14.328125 14.984375 14.492188 14.984375 C 14.71875 14.984375 14.824219 14.929688 14.824219 14.8125 C 14.824219 14.769531 14.808594 14.71875 14.789062 14.699219 C 14.75 14.660156 14.269531 14.648438 14.234375 14.683594 Z M 14.234375 14.683594 "/>
<path style=" stroke:none;fill-rule:nonzero;fill:rgb(100%,100%,100%);fill-opacity:1;" d="M 15.734375 14.957031 C 15.550781 15.070312 15.5 15.390625 15.664062 15.414062 C 15.722656 15.425781 15.722656 15.417969 15.699219 15.347656 C 15.644531 15.199219 15.664062 15.109375 15.769531 15.023438 C 15.929688 14.898438 15.90625 14.851562 15.734375 14.957031 Z M 15.734375 14.957031 "/>
<path style=" stroke:none;fill-rule:nonzero;fill:rgb(100%,100%,100%);fill-opacity:1;" d="M 15.804688 15.085938 C 15.792969 15.113281 15.804688 15.128906 15.828125 15.128906 C 15.851562 15.128906 15.871094 15.109375 15.871094 15.085938 C 15.871094 15.0625 15.863281 15.042969 15.847656 15.042969 C 15.832031 15.042969 15.816406 15.0625 15.804688 15.085938 Z M 15.804688 15.085938 "/>
<path style=" stroke:none;fill-rule:nonzero;fill:rgb(100%,100%,100%);fill-opacity:1;" d="M 15.761719 15.195312 C 15.710938 15.246094 15.71875 15.316406 15.78125 15.375 C 15.835938 15.425781 15.839844 15.421875 15.859375 15.335938 C 15.882812 15.222656 15.824219 15.132812 15.761719 15.195312 Z M 15.761719 15.195312 "/>
<path style=" stroke:none;fill-rule:nonzero;fill:rgb(100%,100%,100%);fill-opacity:1;" d="M 3.367188 15.378906 C 3.355469 15.414062 3.382812 15.421875 3.546875 15.421875 C 3.726562 15.417969 3.738281 15.414062 3.6875 15.378906 C 3.609375 15.320312 3.390625 15.320312 3.367188 15.378906 Z M 3.367188 15.378906 "/>
<path style=" stroke:none;fill-rule:nonzero;fill:rgb(100%,100%,100%);fill-opacity:1;" d="M 10.757812 15.378906 C 10.710938 15.414062 10.71875 15.417969 10.886719 15.421875 C 11.066406 15.421875 11.125 15.386719 11.003906 15.351562 C 10.894531 15.324219 10.820312 15.332031 10.757812 15.378906 Z M 10.757812 15.378906 "/>
</g>
</svg>
