<?xml version="1.0" encoding="UTF-8"?>
<svg xmlns="http://www.w3.org/2000/svg" xmlns:xlink="http://www.w3.org/1999/xlink" width="17px" height="16px" viewBox="0 0 16 16" version="1.1">
<g id="surface1">
<path style=" stroke:none;fill-rule:nonzero;fill:rgb(0%,100%,100%);fill-opacity:1;" d="M 4.179688 0.664062 C 3.898438 0.757812 3.628906 1 3.53125 1.242188 C 3.507812 1.304688 3.472656 1.363281 3.453125 1.375 C 3.4375 1.386719 3.140625 1.398438 2.796875 1.398438 C 2.183594 1.398438 2.175781 1.398438 2.140625 1.328125 C 2.03125 1.105469 1.816406 0.992188 1.628906 1.058594 C 1.335938 1.160156 1.183594 1.488281 1.308594 1.746094 C 1.332031 1.792969 1.40625 1.878906 1.472656 1.929688 C 1.574219 2.007812 1.625 2.023438 1.757812 2.023438 C 1.914062 2.023438 1.921875 2.015625 2.066406 1.855469 L 2.21875 1.695312 L 2.8125 1.6875 L 3.402344 1.675781 L 3.421875 1.75 C 3.433594 1.792969 3.4375 1.871094 3.429688 1.917969 L 3.421875 2.007812 L 2.996094 2.023438 L 2.566406 2.039062 L 2.425781 2.160156 C 2.347656 2.226562 2.226562 2.363281 2.152344 2.464844 C 2.035156 2.625 2.011719 2.644531 1.914062 2.644531 C 1.855469 2.640625 1.773438 2.621094 1.734375 2.597656 C 1.691406 2.574219 1.601562 2.554688 1.527344 2.550781 C 1.1875 2.550781 0.964844 2.941406 1.121094 3.261719 C 1.214844 3.457031 1.320312 3.527344 1.496094 3.527344 C 1.75 3.527344 1.917969 3.335938 1.902344 3.070312 L 1.894531 2.921875 L 2.050781 2.921875 C 2.21875 2.921875 2.277344 2.878906 2.367188 2.699219 C 2.394531 2.644531 2.480469 2.523438 2.5625 2.433594 L 2.714844 2.269531 L 3.402344 2.269531 L 3.414062 2.417969 C 3.421875 2.5 3.421875 2.574219 3.417969 2.585938 C 3.414062 2.59375 3.222656 2.613281 2.988281 2.625 C 2.625 2.644531 2.558594 2.652344 2.476562 2.714844 C 2.421875 2.753906 2.378906 2.792969 2.378906 2.800781 C 2.378906 2.828125 2.390625 2.828125 2.953125 2.847656 C 3.238281 2.863281 3.398438 2.878906 3.414062 2.902344 C 3.453125 2.96875 3.4375 3.136719 3.390625 3.152344 C 3.363281 3.164062 3.203125 3.171875 3.03125 3.171875 L 2.714844 3.175781 L 2.511719 3.363281 C 2.398438 3.464844 2.226562 3.59375 2.128906 3.640625 C 1.945312 3.742188 1.855469 3.8125 1.886719 3.839844 C 1.894531 3.851562 1.984375 3.804688 2.085938 3.734375 C 2.1875 3.664062 2.335938 3.59375 2.433594 3.574219 C 2.523438 3.550781 2.636719 3.503906 2.679688 3.460938 C 2.757812 3.398438 2.792969 3.390625 3.101562 3.390625 L 3.4375 3.390625 L 3.4375 3.480469 C 3.4375 3.640625 3.410156 3.671875 3.277344 3.671875 C 3.144531 3.671875 2.796875 3.621094 2.726562 3.59375 C 2.703125 3.582031 2.558594 3.679688 2.394531 3.8125 C 1.992188 4.136719 2.019531 4.128906 1.921875 3.980469 C 1.84375 3.859375 1.839844 3.855469 1.671875 3.855469 C 1.519531 3.855469 1.484375 3.871094 1.398438 3.949219 C 1.214844 4.121094 1.160156 4.339844 1.246094 4.558594 C 1.308594 4.710938 1.445312 4.789062 1.644531 4.789062 C 1.84375 4.789062 1.96875 4.714844 2.042969 4.554688 C 2.105469 4.410156 2.300781 4.183594 2.511719 4.011719 L 2.667969 3.882812 L 3.039062 3.90625 C 3.449219 3.929688 3.460938 3.933594 3.414062 4.128906 L 3.390625 4.246094 L 3.199219 4.238281 L 3.003906 4.222656 L 2.785156 4.410156 C 2.667969 4.511719 2.433594 4.742188 2.269531 4.921875 C 2.027344 5.1875 1.949219 5.253906 1.859375 5.273438 C 1.707031 5.300781 1.601562 5.390625 1.53125 5.546875 C 1.425781 5.777344 1.464844 6.007812 1.640625 6.167969 C 1.839844 6.34375 2.1875 6.238281 2.324219 5.953125 C 2.363281 5.867188 2.414062 5.804688 2.433594 5.808594 C 2.527344 5.84375 2.652344 5.75 3.027344 5.359375 C 3.371094 5 3.4375 4.945312 3.453125 4.996094 C 3.492188 5.105469 3.671875 5.339844 3.773438 5.414062 C 3.867188 5.484375 3.910156 5.566406 3.851562 5.566406 C 3.839844 5.566406 3.761719 5.636719 3.675781 5.71875 L 3.523438 5.867188 L 3.523438 6.359375 L 3.398438 6.433594 C 3.25 6.511719 3.140625 6.691406 3.140625 6.84375 C 3.140625 6.976562 3.273438 7.222656 3.378906 7.289062 C 3.628906 7.445312 3.980469 7.230469 4.015625 6.894531 C 4.035156 6.714844 3.988281 6.589844 3.855469 6.46875 C 3.769531 6.390625 3.753906 6.355469 3.753906 6.238281 C 3.753906 6.070312 3.777344 6.023438 3.957031 5.835938 C 4.101562 5.691406 4.113281 5.6875 4.226562 5.707031 L 4.347656 5.730469 L 4.347656 6.027344 C 4.347656 6.195312 4.359375 6.539062 4.375 6.792969 L 4.40625 7.257812 L 4.316406 7.398438 C 4.035156 7.847656 4.460938 8.386719 4.90625 8.144531 C 5.140625 8.015625 5.253906 7.65625 5.128906 7.449219 C 5.09375 7.398438 5.082031 7.335938 5.09375 7.296875 C 5.105469 7.261719 5.125 6.910156 5.140625 6.519531 C 5.152344 6.128906 5.167969 5.804688 5.175781 5.800781 C 5.179688 5.796875 5.246094 5.785156 5.320312 5.777344 L 5.453125 5.761719 L 5.472656 5.949219 C 5.484375 6.054688 5.492188 6.460938 5.492188 6.859375 C 5.492188 7.519531 5.496094 7.582031 5.542969 7.628906 C 5.574219 7.660156 5.621094 7.683594 5.644531 7.683594 C 5.738281 7.683594 5.757812 7.503906 5.757812 6.636719 L 5.757812 5.785156 L 6.109375 5.785156 L 6.109375 6.539062 L 6.105469 7.292969 L 6.019531 7.382812 C 5.917969 7.488281 5.863281 7.679688 5.886719 7.828125 C 5.910156 7.957031 6.046875 8.128906 6.167969 8.179688 C 6.285156 8.234375 6.519531 8.207031 6.617188 8.128906 C 6.9375 7.882812 6.835938 7.335938 6.457031 7.25 L 6.359375 7.230469 L 6.347656 6.507812 L 6.34375 5.785156 L 6.597656 5.785156 L 6.621094 6.3125 C 6.640625 6.925781 6.652344 7.003906 6.726562 7.054688 C 6.828125 7.121094 6.855469 7 6.871094 6.375 L 6.886719 5.800781 L 7.0625 5.800781 L 7.0625 6.445312 C 7.0625 7.078125 7.0625 7.089844 7.132812 7.167969 C 7.171875 7.210938 7.230469 7.253906 7.261719 7.265625 C 7.3125 7.28125 7.316406 7.367188 7.308594 10.445312 L 7.296875 13.609375 L 4.273438 13.640625 L 4.113281 13.726562 C 3.839844 13.882812 3.679688 14.070312 3.523438 14.417969 C 3.382812 14.734375 3.347656 14.910156 3.335938 15.382812 L 3.332031 15.535156 L 3.714844 15.554688 C 4.199219 15.582031 12.472656 15.589844 12.5625 15.566406 C 12.644531 15.539062 12.648438 15.492188 12.621094 15.042969 C 12.597656 14.695312 12.59375 14.660156 12.480469 14.433594 C 12.277344 14.015625 12.066406 13.808594 11.722656 13.6875 C 11.550781 13.625 11.480469 13.625 10.125 13.625 L 8.703125 13.625 L 8.683594 13.226562 C 8.671875 13.007812 8.664062 11.582031 8.664062 10.054688 L 8.664062 7.285156 L 8.765625 7.246094 C 8.824219 7.230469 8.894531 7.175781 8.929688 7.132812 C 8.984375 7.058594 8.988281 7.007812 8.988281 6.433594 C 8.988281 5.851562 8.988281 5.816406 9.042969 5.816406 C 9.070312 5.816406 9.136719 5.808594 9.183594 5.796875 L 9.273438 5.777344 L 9.289062 6.195312 C 9.308594 6.617188 9.359375 6.96875 9.398438 6.96875 C 9.433594 6.96875 9.484375 6.464844 9.484375 6.117188 L 9.484375 5.785156 L 9.78125 5.785156 L 9.765625 7.230469 L 9.640625 7.25 C 9.425781 7.277344 9.308594 7.445312 9.308594 7.722656 C 9.308594 8.015625 9.496094 8.210938 9.78125 8.210938 C 10.035156 8.210938 10.21875 7.992188 10.21875 7.695312 C 10.21875 7.546875 10.140625 7.367188 10.054688 7.3125 C 10 7.285156 10 7.179688 10.03125 6.273438 L 10.054688 5.785156 L 10.390625 5.785156 L 10.402344 6.71875 C 10.410156 7.710938 10.410156 7.710938 10.550781 7.703125 L 10.617188 7.699219 L 10.632812 5.785156 L 10.976562 5.785156 L 10.988281 6.527344 C 11 7.066406 11.011719 7.285156 11.039062 7.320312 C 11.070312 7.359375 11.066406 7.382812 11.027344 7.445312 C 10.964844 7.550781 10.964844 7.796875 11.023438 7.917969 C 11.128906 8.132812 11.308594 8.234375 11.5625 8.21875 C 11.640625 8.210938 11.824219 8.046875 11.882812 7.929688 C 11.957031 7.765625 11.925781 7.492188 11.808594 7.355469 C 11.761719 7.304688 11.757812 7.265625 11.78125 7.078125 C 11.792969 6.953125 11.804688 6.597656 11.804688 6.273438 L 11.804688 5.691406 L 11.921875 5.691406 C 12.023438 5.691406 12.058594 5.714844 12.195312 5.855469 C 12.328125 5.992188 12.359375 6.050781 12.390625 6.1875 L 12.421875 6.351562 L 12.320312 6.476562 C 12.191406 6.625 12.160156 6.710938 12.160156 6.90625 C 12.160156 7.023438 12.175781 7.078125 12.234375 7.152344 C 12.519531 7.511719 13.011719 7.324219 13.011719 6.855469 C 13.011719 6.652344 12.921875 6.507812 12.753906 6.421875 L 12.628906 6.363281 L 12.628906 5.941406 L 12.421875 5.726562 C 12.210938 5.507812 12.183594 5.449219 12.265625 5.378906 C 12.289062 5.355469 12.363281 5.257812 12.425781 5.15625 C 12.492188 5.058594 12.550781 4.976562 12.558594 4.976562 C 12.605469 4.976562 12.796875 5.148438 13.117188 5.480469 C 13.460938 5.828125 13.570312 5.902344 13.605469 5.808594 C 13.617188 5.789062 13.625 5.804688 13.625 5.84375 C 13.628906 6.050781 13.855469 6.25 14.078125 6.25 C 14.316406 6.25 14.457031 6.136719 14.527344 5.886719 C 14.570312 5.726562 14.570312 5.71875 14.503906 5.574219 C 14.417969 5.390625 14.277344 5.289062 14.113281 5.289062 C 14.011719 5.289062 13.984375 5.273438 13.945312 5.199219 C 13.917969 5.152344 13.703125 4.914062 13.46875 4.667969 L 13.035156 4.222656 L 12.820312 4.242188 L 12.597656 4.265625 L 12.597656 3.960938 L 12.945312 3.929688 C 13.214844 3.902344 13.304688 3.90625 13.363281 3.933594 C 13.449219 3.980469 13.925781 4.496094 13.972656 4.59375 C 13.992188 4.628906 14.066406 4.691406 14.144531 4.726562 C 14.382812 4.851562 14.636719 4.769531 14.75 4.539062 C 14.90625 4.222656 14.695312 3.855469 14.359375 3.855469 C 14.21875 3.855469 14.0625 3.9375 14.007812 4.039062 C 13.992188 4.078125 13.957031 4.105469 13.9375 4.105469 C 13.867188 4.105469 13.398438 3.597656 13.378906 3.5 C 13.316406 3.222656 13.316406 3.21875 13.226562 3.199219 C 13.179688 3.1875 13.011719 3.179688 12.859375 3.175781 L 12.570312 3.171875 L 12.570312 2.871094 L 12.796875 2.847656 C 13.238281 2.8125 13.445312 2.828125 13.851562 2.925781 L 14.003906 2.964844 L 14.019531 3.113281 C 14.039062 3.296875 14.101562 3.402344 14.230469 3.464844 C 14.539062 3.625 14.890625 3.398438 14.890625 3.042969 C 14.890625 2.847656 14.835938 2.738281 14.6875 2.632812 C 14.539062 2.527344 14.335938 2.519531 14.191406 2.613281 C 14.136719 2.648438 14.082031 2.675781 14.066406 2.675781 C 14.054688 2.675781 13.894531 2.527344 13.714844 2.351562 C 13.492188 2.132812 13.355469 2.023438 13.296875 2.007812 C 13.242188 1.996094 13.058594 1.996094 12.886719 2.007812 L 12.570312 2.03125 L 12.570312 1.902344 C 12.570312 1.667969 12.539062 1.679688 13.199219 1.679688 L 13.789062 1.679688 L 13.875 1.792969 C 14.113281 2.113281 14.515625 2.035156 14.667969 1.636719 C 14.722656 1.503906 14.710938 1.347656 14.632812 1.226562 C 14.582031 1.136719 14.320312 0.996094 14.207031 0.996094 C 14.019531 0.996094 13.863281 1.121094 13.816406 1.316406 C 13.804688 1.359375 13.78125 1.398438 13.765625 1.40625 C 13.746094 1.414062 13.460938 1.414062 13.128906 1.40625 L 12.523438 1.398438 L 12.453125 1.253906 C 12.347656 1.046875 12.140625 0.816406 11.96875 0.722656 L 11.820312 0.636719 L 8.0625 0.632812 C 5.011719 0.628906 4.277344 0.632812 4.179688 0.664062 Z M 11.757812 1.007812 C 11.820312 1.042969 11.933594 1.136719 12.011719 1.21875 C 12.242188 1.46875 12.242188 1.460938 12.253906 3.21875 L 12.261719 4.742188 L 12.179688 4.921875 C 12.089844 5.109375 11.960938 5.246094 11.769531 5.355469 C 11.648438 5.425781 11.613281 5.425781 10.46875 5.445312 C 9.824219 5.457031 8.210938 5.460938 6.886719 5.453125 C 4.59375 5.4375 4.46875 5.429688 4.324219 5.375 C 4.089844 5.285156 3.933594 5.140625 3.832031 4.929688 L 3.746094 4.746094 L 3.734375 3.183594 C 3.726562 1.699219 3.730469 1.609375 3.78125 1.484375 C 3.894531 1.21875 4.101562 1.03125 4.367188 0.96875 C 4.433594 0.953125 6.03125 0.941406 8.0625 0.941406 C 11.527344 0.949219 11.648438 0.953125 11.757812 1.007812 Z M 14.359375 1.367188 C 14.433594 1.445312 14.433594 1.496094 14.359375 1.597656 C 14.285156 1.699219 14.144531 1.710938 14.097656 1.621094 C 14.046875 1.519531 14.0625 1.40625 14.132812 1.355469 C 14.21875 1.289062 14.289062 1.292969 14.359375 1.367188 Z M 1.863281 1.4375 C 1.886719 1.472656 1.910156 1.53125 1.910156 1.558594 C 1.910156 1.632812 1.792969 1.773438 1.734375 1.773438 C 1.667969 1.773438 1.554688 1.632812 1.554688 1.550781 C 1.554688 1.46875 1.660156 1.367188 1.746094 1.367188 C 1.785156 1.367188 1.839844 1.398438 1.863281 1.4375 Z M 13.457031 2.40625 C 13.617188 2.542969 13.734375 2.695312 13.703125 2.726562 C 13.695312 2.738281 13.628906 2.714844 13.558594 2.679688 C 13.449219 2.621094 13.378906 2.613281 13 2.613281 L 12.570312 2.613281 L 12.570312 2.269531 L 13.296875 2.269531 Z M 14.5625 2.929688 C 14.65625 3.015625 14.558594 3.234375 14.421875 3.234375 C 14.277344 3.234375 14.21875 3.042969 14.335938 2.921875 C 14.394531 2.859375 14.476562 2.863281 14.5625 2.929688 Z M 1.609375 2.929688 C 1.660156 2.984375 1.652344 3.140625 1.59375 3.210938 C 1.460938 3.367188 1.289062 3.164062 1.367188 2.941406 C 1.390625 2.882812 1.554688 2.875 1.609375 2.929688 Z M 13.328125 3.488281 C 13.402344 3.625 13.355469 3.652344 12.9375 3.664062 L 12.570312 3.675781 L 12.570312 3.425781 L 12.726562 3.414062 C 12.808594 3.40625 12.96875 3.402344 13.078125 3.402344 C 13.261719 3.40625 13.285156 3.414062 13.328125 3.488281 Z M 1.773438 4.207031 C 1.902344 4.398438 1.710938 4.613281 1.550781 4.457031 C 1.472656 4.386719 1.484375 4.277344 1.574219 4.203125 C 1.675781 4.117188 1.71875 4.121094 1.773438 4.207031 Z M 14.464844 4.214844 C 14.503906 4.253906 14.539062 4.3125 14.539062 4.339844 C 14.539062 4.40625 14.429688 4.511719 14.355469 4.511719 C 14.277344 4.511719 14.183594 4.425781 14.183594 4.347656 C 14.183594 4.285156 14.308594 4.136719 14.359375 4.136719 C 14.378906 4.136719 14.425781 4.171875 14.464844 4.214844 Z M 3.417969 4.546875 C 3.457031 4.699219 3.4375 4.757812 3.359375 4.757812 C 3.308594 4.757812 3.179688 4.863281 2.871094 5.167969 C 2.644531 5.394531 2.445312 5.609375 2.429688 5.652344 C 2.386719 5.75 2.371094 5.742188 2.3125 5.605469 C 2.289062 5.542969 2.242188 5.457031 2.21875 5.421875 C 2.171875 5.355469 2.183594 5.34375 2.597656 4.9375 C 3.035156 4.511719 3.058594 4.496094 3.292969 4.480469 C 3.378906 4.480469 3.402344 4.492188 3.417969 4.546875 Z M 13.332031 4.871094 C 13.78125 5.335938 13.804688 5.375 13.722656 5.496094 C 13.691406 5.542969 13.65625 5.609375 13.648438 5.640625 C 13.628906 5.6875 13.605469 5.667969 13.484375 5.53125 C 13.273438 5.28125 12.859375 4.863281 12.785156 4.824219 C 12.75 4.804688 12.691406 4.789062 12.660156 4.789062 C 12.609375 4.789062 12.597656 4.769531 12.597656 4.65625 C 12.597656 4.582031 12.609375 4.511719 12.621094 4.5 C 12.628906 4.488281 12.710938 4.480469 12.796875 4.480469 L 12.960938 4.480469 Z M 2.019531 5.636719 C 2.070312 5.6875 2.066406 5.835938 2.007812 5.890625 C 1.957031 5.949219 1.847656 5.957031 1.796875 5.902344 C 1.777344 5.882812 1.761719 5.824219 1.761719 5.769531 C 1.761719 5.652344 1.808594 5.597656 1.910156 5.597656 C 1.949219 5.597656 2 5.613281 2.019531 5.636719 Z M 14.207031 5.648438 C 14.308594 5.71875 14.296875 5.863281 14.183594 5.925781 C 14.070312 5.988281 14.019531 5.984375 13.980469 5.914062 C 13.933594 5.824219 13.945312 5.71875 14 5.65625 C 14.058594 5.585938 14.125 5.582031 14.207031 5.648438 Z M 4.90625 6.511719 C 4.90625 7.140625 4.898438 7.25 4.863281 7.238281 C 4.839844 7.230469 4.773438 7.210938 4.71875 7.199219 L 4.621094 7.179688 L 4.601562 6.785156 C 4.574219 6.292969 4.574219 5.800781 4.597656 5.777344 C 4.609375 5.765625 4.679688 5.761719 4.761719 5.761719 L 4.90625 5.769531 Z M 11.554688 7.203125 C 11.554688 7.207031 11.488281 7.21875 11.40625 7.230469 L 11.257812 7.25 L 11.238281 6.945312 C 11.226562 6.777344 11.21875 6.449219 11.21875 6.214844 L 11.21875 5.789062 L 11.375 5.777344 L 11.527344 5.769531 L 11.542969 6.484375 C 11.550781 6.878906 11.554688 7.203125 11.554688 7.203125 Z M 8.664062 6.390625 L 8.664062 6.96875 L 7.371094 6.96875 L 7.371094 5.816406 L 8.664062 5.816406 Z M 3.695312 6.726562 C 3.78125 6.816406 3.699219 7.03125 3.566406 7.03125 C 3.480469 7.03125 3.4375 6.96875 3.4375 6.859375 C 3.4375 6.742188 3.484375 6.6875 3.582031 6.6875 C 3.625 6.6875 3.675781 6.703125 3.695312 6.726562 Z M 12.710938 6.753906 C 12.792969 6.828125 12.703125 7.0625 12.59375 7.0625 C 12.527344 7.0625 12.453125 6.957031 12.453125 6.871094 C 12.453125 6.710938 12.585938 6.648438 12.710938 6.753906 Z M 8.339844 10.21875 L 8.339844 13.09375 L 8.007812 13.09375 C 7.726562 13.09375 7.667969 13.085938 7.652344 13.046875 C 7.628906 12.980469 7.628906 9.351562 7.65625 8.234375 L 7.675781 7.339844 L 8.339844 7.339844 Z M 4.8125 7.578125 C 4.886719 7.632812 4.898438 7.777344 4.832031 7.839844 C 4.765625 7.894531 4.636719 7.886719 4.589844 7.820312 C 4.542969 7.75 4.539062 7.613281 4.585938 7.566406 C 4.636719 7.511719 4.730469 7.519531 4.8125 7.578125 Z M 6.472656 7.609375 C 6.574219 7.710938 6.507812 7.902344 6.371094 7.902344 C 6.277344 7.902344 6.195312 7.804688 6.195312 7.691406 C 6.195312 7.570312 6.382812 7.511719 6.472656 7.609375 Z M 9.902344 7.636719 C 9.925781 7.691406 9.925781 7.734375 9.898438 7.804688 C 9.855469 7.914062 9.761719 7.945312 9.671875 7.886719 C 9.519531 7.777344 9.578125 7.558594 9.765625 7.558594 C 9.847656 7.558594 9.875 7.574219 9.902344 7.636719 Z M 11.59375 7.59375 C 11.644531 7.648438 11.640625 7.777344 11.578125 7.84375 C 11.519531 7.914062 11.402344 7.917969 11.332031 7.847656 C 11.261719 7.78125 11.261719 7.632812 11.332031 7.59375 C 11.402344 7.550781 11.550781 7.550781 11.59375 7.59375 Z M 8.058594 13.4375 L 8.386719 13.4375 L 8.375 13.660156 C 8.359375 14.035156 8.347656 14.085938 8.242188 14.152344 C 8.128906 14.226562 7.917969 14.234375 7.757812 14.164062 C 7.628906 14.113281 7.605469 14.050781 7.605469 13.78125 C 7.605469 13.542969 7.640625 13.398438 7.6875 13.417969 C 7.710938 13.429688 7.875 13.4375 8.058594 13.4375 Z M 7.175781 13.953125 C 7.277344 13.972656 7.285156 13.976562 7.285156 14.09375 C 7.285156 14.199219 7.296875 14.226562 7.410156 14.3125 C 7.644531 14.496094 7.765625 14.535156 8.039062 14.515625 C 8.410156 14.488281 8.570312 14.382812 8.660156 14.097656 L 8.707031 13.949219 L 11.527344 13.949219 L 11.699219 14.039062 C 11.945312 14.167969 12.246094 14.507812 12.179688 14.574219 C 12.152344 14.601562 3.859375 14.609375 3.832031 14.582031 C 3.8125 14.558594 3.90625 14.324219 3.972656 14.238281 C 3.992188 14.210938 4.097656 14.128906 4.203125 14.0625 L 4.390625 13.9375 L 5.726562 13.9375 C 6.460938 13.933594 7.113281 13.945312 7.175781 13.953125 Z M 12.300781 15.089844 L 12.308594 15.242188 L 8.019531 15.242188 C 5.660156 15.242188 3.722656 15.246094 3.710938 15.246094 C 3.679688 15.257812 3.664062 15.035156 3.683594 14.972656 C 3.699219 14.9375 4.335938 14.929688 7.992188 14.9375 L 12.289062 14.945312 Z M 12.300781 15.089844 "/>
<path style=" stroke:none;fill-rule:nonzero;fill:rgb(0%,100%,100%);fill-opacity:1;" d="M 4.570312 1.257812 C 4.40625 1.320312 4.253906 1.460938 4.171875 1.636719 L 4.097656 1.785156 L 4.097656 3.140625 C 4.101562 4.585938 4.101562 4.636719 4.25 4.84375 C 4.289062 4.898438 4.382812 4.984375 4.457031 5.03125 L 4.597656 5.117188 L 5.449219 5.136719 C 5.917969 5.148438 7.441406 5.152344 8.839844 5.152344 C 11.375 5.144531 11.378906 5.144531 11.5 5.078125 C 11.660156 4.992188 11.824219 4.792969 11.863281 4.644531 C 11.90625 4.484375 11.90625 1.863281 11.863281 1.703125 C 11.820312 1.539062 11.675781 1.371094 11.496094 1.289062 L 11.351562 1.214844 L 8.019531 1.214844 C 5.261719 1.214844 4.664062 1.222656 4.570312 1.257812 Z M 11.425781 1.601562 C 11.578125 1.75 11.578125 1.757812 11.59375 3.125 C 11.605469 4.496094 11.597656 4.597656 11.464844 4.730469 L 11.390625 4.804688 L 8.054688 4.804688 C 4.894531 4.804688 4.707031 4.800781 4.617188 4.75 C 4.5625 4.71875 4.492188 4.648438 4.464844 4.59375 C 4.410156 4.5 4.40625 4.429688 4.40625 3.140625 C 4.40625 1.636719 4.394531 1.726562 4.609375 1.589844 L 4.714844 1.523438 L 8.035156 1.53125 C 11.3125 1.539062 11.359375 1.539062 11.425781 1.601562 Z M 11.425781 1.601562 "/>
<path style=" stroke:none;fill-rule:nonzero;fill:rgb(0%,100%,100%);fill-opacity:1;" d="M 6.226562 2.121094 C 5.902344 2.296875 5.863281 2.714844 6.148438 2.976562 C 6.46875 3.273438 6.960938 2.996094 6.925781 2.535156 C 6.910156 2.332031 6.816406 2.191406 6.65625 2.113281 C 6.496094 2.035156 6.382812 2.039062 6.226562 2.121094 Z M 6.226562 2.121094 "/>
<path style=" stroke:none;fill-rule:nonzero;fill:rgb(0%,100%,100%);fill-opacity:1;" d="M 9.339844 2.125 C 9.15625 2.222656 9.09375 2.328125 9.082031 2.542969 C 9.070312 2.765625 9.152344 2.9375 9.324219 3.039062 C 9.472656 3.125 9.578125 3.128906 9.746094 3.046875 C 10.117188 2.851562 10.152344 2.367188 9.8125 2.125 C 9.683594 2.03125 9.503906 2.03125 9.339844 2.125 Z M 9.339844 2.125 "/>
<path style=" stroke:none;fill-rule:nonzero;fill:rgb(0%,100%,100%);fill-opacity:1;" d="M 4.621094 2.847656 C 4.609375 2.875 4.609375 3.003906 4.617188 3.140625 C 4.644531 3.675781 4.875 3.671875 4.875 3.136719 C 4.875 3.003906 4.867188 2.878906 4.859375 2.847656 C 4.835938 2.785156 4.644531 2.78125 4.621094 2.847656 Z M 4.621094 2.847656 "/>
<path style=" stroke:none;fill-rule:nonzero;fill:rgb(0%,100%,100%);fill-opacity:1;" d="M 8.921875 3.566406 C 8.785156 3.78125 8.675781 3.882812 8.457031 3.992188 C 7.988281 4.230469 7.441406 4.082031 7.105469 3.625 C 6.976562 3.441406 6.925781 3.421875 6.820312 3.503906 C 6.730469 3.566406 6.738281 3.660156 6.835938 3.828125 C 6.957031 4.027344 7.140625 4.191406 7.390625 4.316406 C 7.585938 4.414062 7.648438 4.429688 7.898438 4.441406 C 8.253906 4.460938 8.496094 4.390625 8.773438 4.199219 C 8.957031 4.070312 9.210938 3.773438 9.238281 3.644531 C 9.265625 3.550781 9.179688 3.421875 9.089844 3.421875 C 9.039062 3.421875 8.992188 3.460938 8.921875 3.566406 Z M 8.921875 3.566406 "/>
<path style=" stroke:none;fill-rule:nonzero;fill:rgb(0%,100%,100%);fill-opacity:1;" d="M 12.929688 8.617188 C 12.792969 8.679688 12.757812 8.726562 12.886719 8.675781 C 12.929688 8.65625 12.992188 8.632812 13.023438 8.628906 C 13.058594 8.621094 13.125 8.601562 13.171875 8.585938 L 13.261719 8.558594 L 13.15625 8.558594 C 13.101562 8.558594 13 8.582031 12.929688 8.617188 Z M 12.929688 8.617188 "/>
<path style=" stroke:none;fill-rule:nonzero;fill:rgb(0%,100%,100%);fill-opacity:1;" d="M 13.480469 8.589844 C 13.480469 8.601562 13.53125 8.617188 13.597656 8.617188 C 13.664062 8.617188 13.714844 8.628906 13.714844 8.644531 C 13.714844 8.664062 14.003906 8.675781 14.421875 8.679688 C 14.917969 8.679688 15.125 8.667969 15.125 8.644531 C 15.125 8.625 15.164062 8.613281 15.222656 8.617188 C 15.457031 8.632812 16.007812 8.613281 16.007812 8.585938 C 16.007812 8.570312 15.519531 8.558594 14.742188 8.5625 C 14.050781 8.5625 13.480469 8.578125 13.480469 8.589844 Z M 13.480469 8.589844 "/>
<path style=" stroke:none;fill-rule:nonzero;fill:rgb(0%,100%,100%);fill-opacity:1;" d="M 15.851562 8.667969 C 15.871094 8.675781 15.90625 8.675781 15.925781 8.667969 C 15.945312 8.660156 15.929688 8.652344 15.886719 8.652344 C 15.847656 8.652344 15.832031 8.660156 15.851562 8.667969 Z M 15.851562 8.667969 "/>
<path style=" stroke:none;fill-rule:nonzero;fill:rgb(0%,100%,100%);fill-opacity:1;" d="M 12.890625 8.78125 C 12.765625 8.867188 12.65625 9.035156 12.65625 9.140625 C 12.65625 9.214844 12.652344 9.214844 12.625 9.167969 C 12.609375 9.132812 12.601562 9.0625 12.609375 9.011719 C 12.625 8.921875 12.621094 8.921875 12.59375 8.972656 C 12.5625 9.03125 12.5625 9.65625 12.597656 9.824219 C 12.597656 9.832031 12.621094 9.820312 12.644531 9.796875 C 12.675781 9.765625 12.6875 9.6875 12.6875 9.453125 C 12.6875 9.285156 12.699219 9.113281 12.714844 9.070312 C 12.730469 9.027344 12.804688 8.925781 12.875 8.847656 C 12.949219 8.769531 13.003906 8.710938 13 8.710938 C 12.992188 8.710938 12.945312 8.742188 12.890625 8.78125 Z M 12.648438 9.617188 C 12.640625 9.640625 12.632812 9.625 12.632812 9.582031 C 12.632812 9.535156 12.640625 9.519531 12.648438 9.539062 C 12.65625 9.5625 12.65625 9.597656 12.648438 9.617188 Z M 12.648438 9.617188 "/>
<path style=" stroke:none;fill-rule:nonzero;fill:rgb(0%,100%,100%);fill-opacity:1;" d="M 11.378906 8.894531 C 11.175781 9.027344 11.070312 9.195312 11.160156 9.253906 C 11.175781 9.261719 11.1875 9.238281 11.1875 9.195312 C 11.1875 9.050781 11.523438 8.828125 11.628906 8.894531 C 11.652344 8.910156 11.675781 8.96875 11.6875 9.023438 L 11.710938 9.128906 L 11.714844 9.03125 C 11.722656 8.847656 11.554688 8.777344 11.378906 8.894531 Z M 11.378906 8.894531 "/>
<path style=" stroke:none;fill-rule:nonzero;fill:rgb(0%,100%,100%);fill-opacity:1;" d="M 14.621094 8.886719 C 14.785156 8.894531 15.050781 8.894531 15.207031 8.886719 C 15.363281 8.882812 15.226562 8.878906 14.90625 8.878906 C 14.582031 8.878906 14.453125 8.882812 14.621094 8.886719 Z M 14.621094 8.886719 "/>
<path style=" stroke:none;fill-rule:nonzero;fill:rgb(0%,100%,100%);fill-opacity:1;" d="M 13.046875 8.976562 C 13.011719 9 12.960938 9.0625 12.9375 9.113281 C 12.886719 9.214844 12.875 9.503906 12.921875 9.425781 C 12.941406 9.394531 12.941406 9.554688 12.929688 9.882812 C 12.914062 10.40625 12.933594 10.546875 13.035156 10.601562 C 13.082031 10.632812 13.316406 10.648438 13.589844 10.644531 C 13.6875 10.644531 13.738281 10.65625 13.726562 10.675781 C 13.703125 10.714844 13.839844 10.695312 13.867188 10.652344 C 13.882812 10.632812 13.890625 10.632812 13.890625 10.65625 C 13.890625 10.679688 13.96875 10.691406 14.089844 10.695312 C 14.230469 10.695312 14.269531 10.691406 14.230469 10.667969 C 14.175781 10.644531 14.175781 10.640625 14.222656 10.640625 C 14.253906 10.636719 14.300781 10.652344 14.332031 10.667969 C 14.371094 10.691406 14.394531 10.691406 14.40625 10.667969 C 14.433594 10.625 14.539062 10.632812 14.539062 10.675781 C 14.539062 10.703125 14.550781 10.699219 14.570312 10.667969 C 14.59375 10.632812 14.605469 10.632812 14.617188 10.660156 C 14.621094 10.679688 14.652344 10.699219 14.679688 10.699219 C 14.714844 10.699219 14.71875 10.695312 14.691406 10.671875 C 14.621094 10.625 14.972656 10.601562 15.496094 10.625 C 15.84375 10.640625 16.007812 10.636719 16.007812 10.617188 C 16.007812 10.589844 15.734375 10.582031 15.164062 10.585938 C 14.695312 10.585938 14.066406 10.585938 13.753906 10.582031 C 13.210938 10.574219 13.1875 10.574219 13.109375 10.503906 L 13.03125 10.433594 L 13.023438 9.199219 L 13.113281 9.125 C 13.164062 9.085938 13.1875 9.050781 13.164062 9.050781 C 13.113281 9.050781 13.152344 8.964844 13.210938 8.949219 C 13.238281 8.9375 13.230469 8.933594 13.1875 8.929688 C 13.144531 8.929688 13.082031 8.949219 13.046875 8.976562 Z M 13.046875 8.976562 "/>
<path style=" stroke:none;fill-rule:nonzero;fill:rgb(0%,100%,100%);fill-opacity:1;" d="M 15.875 8.988281 C 15.804688 9.007812 15.800781 9.015625 15.851562 9.015625 C 15.886719 9.015625 15.933594 9.03125 15.957031 9.039062 C 15.992188 9.050781 16.007812 9.042969 16.007812 9.007812 C 16.007812 8.953125 16.007812 8.953125 15.875 8.988281 Z M 15.875 8.988281 "/>
<path style=" stroke:none;fill-rule:nonzero;fill:rgb(0%,100%,100%);fill-opacity:1;" d="M 11.445312 9.152344 C 11.457031 9.230469 11.449219 9.289062 11.421875 9.320312 C 11.386719 9.367188 11.386719 9.371094 11.425781 9.355469 C 11.476562 9.339844 11.5 9.121094 11.457031 9.074219 C 11.4375 9.050781 11.433594 9.078125 11.445312 9.152344 Z M 11.445312 9.152344 "/>
<path style=" stroke:none;fill-rule:nonzero;fill:rgb(0%,100%,100%);fill-opacity:1;" d="M 11.652344 9.167969 C 11.640625 9.175781 11.628906 9.199219 11.628906 9.21875 C 11.628906 9.238281 11.644531 9.234375 11.664062 9.214844 C 11.683594 9.195312 11.691406 9.167969 11.6875 9.160156 C 11.675781 9.152344 11.660156 9.152344 11.652344 9.167969 Z M 11.652344 9.167969 "/>
<path style=" stroke:none;fill-rule:nonzero;fill:rgb(0%,100%,100%);fill-opacity:1;" d="M 13.773438 9.324219 C 13.671875 9.4375 13.664062 9.539062 13.746094 9.65625 C 13.792969 9.71875 13.832031 9.734375 13.917969 9.734375 C 14.0625 9.734375 14.15625 9.636719 14.15625 9.480469 C 14.15625 9.351562 14.089844 9.277344 13.957031 9.25 C 13.878906 9.234375 13.851562 9.246094 13.773438 9.324219 Z M 13.773438 9.324219 "/>
<path style=" stroke:none;fill-rule:nonzero;fill:rgb(0%,100%,100%);fill-opacity:1;" d="M 15.125 9.335938 C 15.046875 9.429688 15.046875 9.566406 15.140625 9.65625 C 15.21875 9.746094 15.261719 9.75 15.367188 9.703125 C 15.496094 9.640625 15.542969 9.460938 15.460938 9.335938 C 15.398438 9.242188 15.210938 9.242188 15.125 9.335938 Z M 15.125 9.335938 "/>
<path style=" stroke:none;fill-rule:nonzero;fill:rgb(0%,100%,100%);fill-opacity:1;" d="M 11.777344 9.59375 C 11.707031 9.636719 11.707031 9.640625 11.765625 9.640625 C 11.800781 9.640625 11.84375 9.621094 11.863281 9.59375 C 11.910156 9.535156 11.875 9.535156 11.777344 9.59375 Z M 11.777344 9.59375 "/>
<path style=" stroke:none;fill-rule:nonzero;fill:rgb(0%,100%,100%);fill-opacity:1;" d="M 13.214844 9.648438 C 13.214844 9.777344 13.257812 9.921875 13.296875 9.921875 C 13.359375 9.921875 13.402344 9.792969 13.367188 9.695312 C 13.332031 9.609375 13.214844 9.574219 13.214844 9.648438 Z M 13.214844 9.648438 "/>
<path style=" stroke:none;fill-rule:nonzero;fill:rgb(0%,100%,100%);fill-opacity:1;" d="M 15.882812 9.707031 C 15.851562 9.722656 15.828125 9.773438 15.828125 9.8125 C 15.828125 9.878906 15.84375 9.890625 15.917969 9.890625 C 15.980469 9.890625 16.007812 9.875 16.007812 9.835938 C 16.007812 9.738281 15.941406 9.671875 15.882812 9.707031 Z M 15.882812 9.707031 "/>
<path style=" stroke:none;fill-rule:nonzero;fill:rgb(0%,100%,100%);fill-opacity:1;" d="M 11.164062 9.816406 C 11.128906 9.863281 11.101562 9.929688 11.101562 9.96875 C 11.101562 10.066406 11.21875 10.175781 11.300781 10.152344 C 11.375 10.128906 11.359375 10.078125 11.277344 10.078125 C 11.148438 10.078125 11.152344 9.855469 11.28125 9.8125 C 11.332031 9.792969 11.363281 9.808594 11.414062 9.871094 C 11.453125 9.917969 11.484375 9.941406 11.484375 9.917969 C 11.484375 9.863281 11.339844 9.734375 11.277344 9.734375 C 11.25 9.734375 11.195312 9.773438 11.164062 9.816406 Z M 11.164062 9.816406 "/>
<path style=" stroke:none;fill-rule:nonzero;fill:rgb(0%,100%,100%);fill-opacity:1;" d="M 12.601562 9.929688 C 12.597656 9.992188 12.609375 10.007812 12.644531 9.992188 C 12.671875 9.984375 12.679688 9.964844 12.664062 9.957031 C 12.648438 9.945312 12.628906 9.917969 12.621094 9.890625 C 12.609375 9.863281 12.601562 9.878906 12.601562 9.929688 Z M 12.601562 9.929688 "/>
<path style=" stroke:none;fill-rule:nonzero;fill:rgb(0%,100%,100%);fill-opacity:1;" d="M 14.046875 9.953125 C 14.015625 10.003906 14.019531 10.027344 14.085938 10.109375 C 14.273438 10.34375 14.625 10.410156 14.90625 10.261719 C 14.988281 10.21875 15.070312 10.144531 15.09375 10.097656 C 15.132812 10.023438 15.132812 10.011719 15.089844 9.964844 C 15.042969 9.917969 15.035156 9.917969 14.941406 10.023438 C 14.828125 10.152344 14.726562 10.203125 14.585938 10.203125 C 14.457031 10.199219 14.269531 10.101562 14.179688 9.988281 C 14.136719 9.933594 14.097656 9.890625 14.089844 9.890625 C 14.085938 9.890625 14.066406 9.917969 14.046875 9.953125 Z M 14.046875 9.953125 "/>
<path style=" stroke:none;fill-rule:nonzero;fill:rgb(0%,100%,100%);fill-opacity:1;" d="M 12.570312 10.082031 C 12.570312 10.097656 12.585938 10.101562 12.597656 10.09375 C 12.617188 10.082031 12.628906 10.070312 12.628906 10.058594 C 12.628906 10.054688 12.617188 10.046875 12.597656 10.046875 C 12.585938 10.046875 12.570312 10.0625 12.570312 10.082031 Z M 12.570312 10.082031 "/>
<path style=" stroke:none;fill-rule:nonzero;fill:rgb(0%,100%,100%);fill-opacity:1;" d="M 0.183594 10.097656 C 0.289062 10.105469 0.476562 10.105469 0.59375 10.097656 C 0.710938 10.097656 0.621094 10.089844 0.394531 10.089844 C 0.171875 10.089844 0.0742188 10.09375 0.183594 10.097656 Z M 0.183594 10.097656 "/>
<path style=" stroke:none;fill-rule:nonzero;fill:rgb(0%,100%,100%);fill-opacity:1;" d="M 12.605469 10.28125 C 12.605469 10.328125 12.609375 10.347656 12.621094 10.316406 C 12.625 10.289062 12.625 10.246094 12.621094 10.222656 C 12.609375 10.207031 12.605469 10.226562 12.605469 10.28125 Z M 12.605469 10.28125 "/>
<path style=" stroke:none;fill-rule:nonzero;fill:rgb(0%,100%,100%);fill-opacity:1;" d="M 12.597656 10.417969 C 12.597656 10.433594 12.613281 10.457031 12.628906 10.464844 C 12.644531 10.476562 12.65625 10.472656 12.65625 10.453125 C 12.65625 10.4375 12.644531 10.414062 12.628906 10.40625 C 12.613281 10.394531 12.597656 10.398438 12.597656 10.417969 Z M 12.597656 10.417969 "/>
<path style=" stroke:none;fill-rule:nonzero;fill:rgb(0%,100%,100%);fill-opacity:1;" d="M 11.261719 10.476562 C 11.113281 10.5 11.042969 10.683594 11.132812 10.800781 C 11.195312 10.890625 11.34375 10.917969 11.378906 10.855469 C 11.390625 10.832031 11.375 10.828125 11.328125 10.839844 C 11.226562 10.867188 11.128906 10.808594 11.128906 10.722656 C 11.128906 10.621094 11.1875 10.546875 11.292969 10.519531 C 11.386719 10.492188 11.359375 10.457031 11.261719 10.476562 Z M 11.261719 10.476562 "/>
<path style=" stroke:none;fill-rule:nonzero;fill:rgb(0%,100%,100%);fill-opacity:1;" d="M 14.832031 10.667969 C 14.78125 10.6875 14.835938 10.695312 15 10.695312 C 15.128906 10.699219 15.25 10.683594 15.257812 10.667969 C 15.277344 10.632812 14.941406 10.632812 14.832031 10.667969 Z M 14.832031 10.667969 "/>
<path style=" stroke:none;fill-rule:nonzero;fill:rgb(0%,100%,100%);fill-opacity:1;" d="M 15.53125 10.691406 C 15.566406 10.695312 15.625 10.695312 15.664062 10.691406 C 15.699219 10.683594 15.667969 10.679688 15.59375 10.679688 C 15.519531 10.679688 15.492188 10.683594 15.53125 10.691406 Z M 15.53125 10.691406 "/>
<path style=" stroke:none;fill-rule:nonzero;fill:rgb(0%,100%,100%);fill-opacity:1;" d="M 14.121094 11.015625 C 14.128906 11.074219 14.136719 11.242188 14.136719 11.394531 C 14.140625 11.554688 14.152344 11.664062 14.171875 11.664062 C 14.191406 11.664062 14.199219 11.5625 14.195312 11.386719 L 14.183594 11.109375 L 14.324219 11.089844 C 14.402344 11.082031 14.523438 11.078125 14.597656 11.089844 C 14.667969 11.09375 14.773438 11.101562 14.824219 11.101562 C 14.898438 11.105469 14.917969 11.117188 14.917969 11.164062 C 14.917969 11.199219 14.933594 11.234375 14.953125 11.246094 C 14.96875 11.257812 14.976562 11.300781 14.96875 11.339844 C 14.964844 11.382812 14.96875 11.414062 14.980469 11.414062 C 14.996094 11.414062 15.007812 11.472656 15.007812 11.546875 C 15.007812 11.617188 15.015625 11.664062 15.03125 11.652344 C 15.042969 11.636719 15.050781 11.503906 15.050781 11.359375 L 15.050781 11.089844 L 15.316406 11.050781 L 15.199219 11.042969 C 15.132812 11.039062 15 11.03125 14.902344 11.027344 C 14.800781 11.023438 14.703125 11.011719 14.691406 11 C 14.671875 10.988281 14.648438 10.996094 14.636719 11.015625 C 14.628906 11.03125 14.609375 11.035156 14.597656 11.023438 C 14.554688 10.953125 14.4375 10.917969 14.277344 10.917969 L 14.105469 10.917969 Z M 14.121094 11.015625 "/>
<path style=" stroke:none;fill-rule:nonzero;fill:rgb(0%,100%,100%);fill-opacity:1;" d="M 13.972656 11.0625 C 13.992188 11.070312 14.027344 11.070312 14.046875 11.0625 C 14.066406 11.054688 14.050781 11.046875 14.007812 11.046875 C 13.96875 11.046875 13.953125 11.054688 13.972656 11.0625 Z M 13.972656 11.0625 "/>
<path style=" stroke:none;fill-rule:nonzero;fill:rgb(0%,100%,100%);fill-opacity:1;" d="M 3.238281 11.15625 C 3.316406 11.164062 3.4375 11.164062 3.503906 11.15625 C 3.570312 11.152344 3.507812 11.148438 3.363281 11.148438 C 3.21875 11.148438 3.164062 11.152344 3.238281 11.15625 Z M 3.238281 11.15625 "/>
<path style=" stroke:none;fill-rule:nonzero;fill:rgb(0%,100%,100%);fill-opacity:1;" d="M 15.890625 11.464844 C 15.890625 11.617188 15.902344 11.808594 15.917969 11.898438 C 15.933594 11.996094 15.933594 11.902344 15.925781 11.632812 C 15.910156 11.152344 15.886719 11.050781 15.890625 11.464844 Z M 15.890625 11.464844 "/>
<path style=" stroke:none;fill-rule:nonzero;fill:rgb(0%,100%,100%);fill-opacity:1;" d="M 14.925781 11.523438 C 14.925781 11.574219 14.929688 11.59375 14.941406 11.5625 C 14.945312 11.535156 14.945312 11.488281 14.941406 11.46875 C 14.929688 11.449219 14.925781 11.472656 14.925781 11.523438 Z M 14.925781 11.523438 "/>
<path style=" stroke:none;fill-rule:nonzero;fill:rgb(0%,100%,100%);fill-opacity:1;" d="M 13.28125 11.601562 C 13.28125 11.660156 13.285156 11.6875 13.296875 11.65625 C 13.300781 11.625 13.300781 11.578125 13.296875 11.546875 C 13.285156 11.519531 13.28125 11.542969 13.28125 11.601562 Z M 13.28125 11.601562 "/>
<path style=" stroke:none;fill-rule:nonzero;fill:rgb(0%,100%,100%);fill-opacity:1;" d="M 14.242188 11.574219 C 14.242188 11.589844 14.253906 11.597656 14.265625 11.59375 C 14.277344 11.59375 14.3125 11.601562 14.339844 11.617188 C 14.382812 11.636719 14.386719 11.648438 14.355469 11.671875 C 14.328125 11.691406 14.335938 11.695312 14.382812 11.6875 C 14.441406 11.671875 14.449219 11.679688 14.433594 11.71875 C 14.421875 11.75 14.40625 11.902344 14.394531 12.058594 C 14.382812 12.367188 14.34375 12.449219 14.324219 12.199219 C 14.3125 12.054688 14.3125 12.058594 14.308594 12.238281 C 14.300781 12.386719 14.3125 12.414062 14.347656 12.398438 C 14.382812 12.386719 14.390625 12.40625 14.390625 12.503906 C 14.390625 12.574219 14.375 12.628906 14.351562 12.632812 C 14.324219 12.640625 14.328125 12.660156 14.367188 12.695312 C 14.417969 12.75 14.421875 12.738281 14.421875 12.417969 C 14.425781 11.972656 14.445312 11.777344 14.488281 11.75 C 14.507812 11.738281 14.566406 11.726562 14.621094 11.726562 C 14.691406 11.726562 14.71875 11.742188 14.738281 11.792969 C 14.761719 11.855469 14.785156 12.296875 14.804688 12.816406 L 14.808594 12.921875 L 14.835938 12.816406 C 14.847656 12.753906 14.859375 12.480469 14.859375 12.199219 C 14.855469 11.738281 14.851562 11.695312 14.808594 11.734375 C 14.773438 11.761719 14.765625 11.761719 14.785156 11.734375 C 14.796875 11.710938 14.789062 11.695312 14.769531 11.695312 C 14.742188 11.695312 14.742188 11.6875 14.769531 11.652344 C 14.796875 11.613281 14.792969 11.601562 14.738281 11.585938 C 14.644531 11.550781 14.242188 11.546875 14.242188 11.574219 Z M 14.242188 11.574219 "/>
<path style=" stroke:none;fill-rule:nonzero;fill:rgb(0%,100%,100%);fill-opacity:1;" d="M 12.714844 11.644531 C 12.714844 11.652344 12.738281 11.667969 12.761719 11.675781 C 12.785156 11.6875 12.796875 11.683594 12.789062 11.664062 C 12.773438 11.632812 12.714844 11.621094 12.714844 11.644531 Z M 12.714844 11.644531 "/>
<path style=" stroke:none;fill-rule:nonzero;fill:rgb(0%,100%,100%);fill-opacity:1;" d="M 12.792969 11.882812 C 12.722656 12.011719 12.652344 12.046875 12.574219 11.988281 C 12.539062 11.960938 12.511719 11.917969 12.511719 11.894531 C 12.511719 11.871094 12.496094 11.851562 12.480469 11.851562 C 12.410156 11.851562 12.472656 11.960938 12.574219 12.023438 C 12.679688 12.082031 12.683594 12.082031 12.746094 12.023438 C 12.808594 11.960938 12.875 11.824219 12.855469 11.800781 C 12.847656 11.792969 12.824219 11.832031 12.792969 11.882812 Z M 12.792969 11.882812 "/>
<path style=" stroke:none;fill-rule:nonzero;fill:rgb(0%,100%,100%);fill-opacity:1;" d="M 14.324219 11.945312 C 14.3125 11.976562 14.320312 12.015625 14.335938 12.023438 C 14.347656 12.035156 14.359375 12.007812 14.359375 11.960938 C 14.359375 11.867188 14.34375 11.855469 14.324219 11.945312 Z M 14.324219 11.945312 "/>
<path style=" stroke:none;fill-rule:nonzero;fill:rgb(0%,100%,100%);fill-opacity:1;" d="M 13.804688 12.128906 C 13.804688 12.144531 13.84375 12.160156 13.890625 12.160156 C 13.941406 12.160156 13.980469 12.144531 13.980469 12.128906 C 13.980469 12.113281 13.941406 12.097656 13.890625 12.097656 C 13.84375 12.097656 13.804688 12.113281 13.804688 12.128906 Z M 13.804688 12.128906 "/>
<path style=" stroke:none;fill-rule:nonzero;fill:rgb(0%,100%,100%);fill-opacity:1;" d="M 13.011719 12.191406 C 13.011719 12.222656 13.066406 12.265625 13.082031 12.25 C 13.085938 12.246094 13.074219 12.222656 13.050781 12.199219 C 13.027344 12.175781 13.011719 12.175781 13.011719 12.191406 Z M 13.011719 12.191406 "/>
<path style=" stroke:none;fill-rule:nonzero;fill:rgb(0%,100%,100%);fill-opacity:1;" d="M 13.589844 12.183594 C 13.609375 12.191406 13.644531 12.191406 13.664062 12.183594 C 13.683594 12.175781 13.667969 12.167969 13.628906 12.167969 C 13.585938 12.167969 13.570312 12.175781 13.589844 12.183594 Z M 13.589844 12.183594 "/>
<path style=" stroke:none;fill-rule:nonzero;fill:rgb(0%,100%,100%);fill-opacity:1;" d="M 15.625 12.226562 C 15.625 12.242188 15.65625 12.253906 15.699219 12.253906 C 15.738281 12.253906 15.769531 12.242188 15.769531 12.226562 C 15.769531 12.210938 15.738281 12.199219 15.699219 12.199219 C 15.65625 12.199219 15.625 12.210938 15.625 12.226562 Z M 15.625 12.226562 "/>
<path style=" stroke:none;fill-rule:nonzero;fill:rgb(0%,100%,100%);fill-opacity:1;" d="M 3.699219 12.351562 C 3.679688 12.386719 3.671875 12.421875 3.679688 12.429688 C 3.6875 12.433594 3.707031 12.40625 3.722656 12.363281 C 3.765625 12.269531 3.746094 12.261719 3.699219 12.351562 Z M 3.699219 12.351562 "/>
<path style=" stroke:none;fill-rule:nonzero;fill:rgb(0%,100%,100%);fill-opacity:1;" d="M 1.820312 12.996094 C 1.820312 13.046875 1.832031 13.101562 1.851562 13.109375 C 1.867188 13.121094 1.871094 13.089844 1.859375 13.027344 C 1.835938 12.890625 1.820312 12.878906 1.820312 12.996094 Z M 1.820312 12.996094 "/>
<path style=" stroke:none;fill-rule:nonzero;fill:rgb(0%,100%,100%);fill-opacity:1;" d="M 2.179688 15.183594 C 2.125 15.246094 2.136719 15.363281 2.21875 15.441406 C 2.277344 15.511719 2.3125 15.519531 2.519531 15.519531 C 2.773438 15.519531 2.847656 15.476562 2.847656 15.324219 C 2.847656 15.179688 2.785156 15.148438 2.484375 15.148438 C 2.3125 15.148438 2.203125 15.160156 2.179688 15.183594 Z M 2.179688 15.183594 "/>
<path style=" stroke:none;fill-rule:nonzero;fill:rgb(0%,100%,100%);fill-opacity:1;" d="M 1.082031 15.199219 C 1.023438 15.214844 0.984375 15.332031 1.011719 15.421875 C 1.035156 15.507812 1.160156 15.566406 1.320312 15.5625 C 1.515625 15.558594 1.617188 15.488281 1.617188 15.355469 C 1.617188 15.300781 1.601562 15.238281 1.578125 15.214844 C 1.542969 15.179688 1.191406 15.167969 1.082031 15.199219 Z M 1.082031 15.199219 "/>
<path style=" stroke:none;fill-rule:nonzero;fill:rgb(0%,100%,100%);fill-opacity:1;" d="M 13.15625 15.257812 C 13.117188 15.371094 13.117188 15.414062 13.179688 15.46875 C 13.226562 15.507812 13.296875 15.519531 13.519531 15.519531 C 13.785156 15.519531 13.800781 15.519531 13.859375 15.441406 C 13.933594 15.335938 13.9375 15.253906 13.863281 15.210938 C 13.832031 15.195312 13.667969 15.179688 13.496094 15.179688 C 13.1875 15.179688 13.183594 15.179688 13.15625 15.257812 Z M 13.15625 15.257812 "/>
<path style=" stroke:none;fill-rule:nonzero;fill:rgb(0%,100%,100%);fill-opacity:1;" d="M 14.351562 15.199219 C 14.316406 15.238281 14.332031 15.382812 14.378906 15.453125 C 14.417969 15.511719 14.449219 15.519531 14.613281 15.519531 C 14.84375 15.519531 14.949219 15.460938 14.949219 15.335938 C 14.949219 15.289062 14.933594 15.238281 14.914062 15.214844 C 14.875 15.175781 14.386719 15.164062 14.351562 15.199219 Z M 14.351562 15.199219 "/>
<path style=" stroke:none;fill-rule:nonzero;fill:rgb(0%,100%,100%);fill-opacity:1;" d="M 15.863281 15.488281 C 15.679688 15.609375 15.628906 15.957031 15.792969 15.980469 C 15.851562 15.992188 15.855469 15.984375 15.828125 15.910156 C 15.773438 15.75 15.792969 15.65625 15.902344 15.5625 C 16.0625 15.425781 16.039062 15.378906 15.863281 15.488281 Z M 15.863281 15.488281 "/>
<path style=" stroke:none;fill-rule:nonzero;fill:rgb(0%,100%,100%);fill-opacity:1;" d="M 15.933594 15.628906 C 15.925781 15.65625 15.933594 15.675781 15.960938 15.675781 C 15.984375 15.675781 16.007812 15.65625 16.007812 15.628906 C 16.007812 15.605469 15.992188 15.582031 15.980469 15.582031 C 15.964844 15.582031 15.945312 15.605469 15.933594 15.628906 Z M 15.933594 15.628906 "/>
<path style=" stroke:none;fill-rule:nonzero;fill:rgb(0%,100%,100%);fill-opacity:1;" d="M 15.894531 15.746094 C 15.839844 15.800781 15.851562 15.875 15.914062 15.9375 C 15.96875 15.992188 15.96875 15.988281 15.992188 15.894531 C 16.015625 15.777344 15.957031 15.679688 15.894531 15.746094 Z M 15.894531 15.746094 "/>
<path style=" stroke:none;fill-rule:nonzero;fill:rgb(0%,100%,100%);fill-opacity:1;" d="M 3.394531 15.941406 C 3.382812 15.976562 3.414062 15.988281 3.578125 15.988281 C 3.757812 15.984375 3.769531 15.980469 3.71875 15.941406 C 3.640625 15.878906 3.417969 15.878906 3.394531 15.941406 Z M 3.394531 15.941406 "/>
<path style=" stroke:none;fill-rule:nonzero;fill:rgb(0%,100%,100%);fill-opacity:1;" d="M 10.847656 15.941406 C 10.796875 15.980469 10.808594 15.984375 10.976562 15.988281 C 11.160156 15.988281 11.21875 15.949219 11.09375 15.914062 C 10.988281 15.882812 10.910156 15.890625 10.847656 15.941406 Z M 10.847656 15.941406 "/>
</g>
</svg>
